<svg version="1.1" xmlns="http://www.w3.org/2000/svg" xmlns:xlink="http://www.w3.org/1999/xlink" width="1700" height="1640"><defs/><g><g><path fill="#ffffff" stroke="none" paint-order="stroke fill markers" d=" M 14 10 L 526 10 Q 530 10 530 14 L 530 786 Q 530 790 526 790 L 14 790 Q 10 790 10 786 L 10 14 Q 10 10 14 10 Z"/></g><g><path fill="none" stroke="#000000" paint-order="fill stroke markers" d=" M 14 10 L 526 10 Q 530 10 530 14 L 530 786 Q 530 790 526 790 L 14 790 Q 10 790 10 786 L 10 14 Q 10 10 14 10 Z" stroke-miterlimit="10" stroke-dasharray=""/></g><g><path fill="none" stroke="#000000" paint-order="fill stroke markers" d=" M 10 30 L 530 30" stroke-miterlimit="10" stroke-dasharray=""/></g><g><path fill="none" stroke="#000000" paint-order="fill stroke markers" d=" M 514 20 C 514 16.6862912 516.6862912 14 520 14 C 523.3137088 14 526 16.6862912 526 20 C 526 23.3137088 523.3137088 26 520 26 C 516.6862912 26 514 23.3137088 514 20 Z" stroke-miterlimit="10" stroke-dasharray=""/></g><g><path fill="none" stroke="#000000" paint-order="fill stroke markers" d=" M 498 20 C 498 16.6862912 500.6862912 14 504 14 C 507.3137088 14 510 16.6862912 510 20 C 510 23.3137088 507.3137088 26 504 26 C 500.6862912 26 498 23.3137088 498 20 Z" stroke-miterlimit="10" stroke-dasharray=""/></g><g><path fill="none" stroke="#000000" paint-order="fill stroke markers" d=" M 20 14 L 486 14 Q 492 14 492 20 L 492 20 Q 492 26 486 26 L 20 26 Q 14 26 14 20 L 14 20 Q 14 14 20 14 Z" stroke-miterlimit="10" stroke-dasharray=""/></g><g><path fill="#ffffff" stroke="none" paint-order="stroke fill markers" d=" M 594 10 L 1106 10 Q 1110 10 1110 14 L 1110 786 Q 1110 790 1106 790 L 594 790 Q 590 790 590 786 L 590 14 Q 590 10 594 10 Z"/></g><g><path fill="none" stroke="#000000" paint-order="fill stroke markers" d=" M 594 10 L 1106 10 Q 1110 10 1110 14 L 1110 786 Q 1110 790 1106 790 L 594 790 Q 590 790 590 786 L 590 14 Q 590 10 594 10 Z" stroke-miterlimit="10" stroke-dasharray=""/></g><g><path fill="none" stroke="#000000" paint-order="fill stroke markers" d=" M 590 30 L 1110 30" stroke-miterlimit="10" stroke-dasharray=""/></g><g><path fill="none" stroke="#000000" paint-order="fill stroke markers" d=" M 1094 20 C 1094 16.6862912 1096.6862912 14 1100 14 C 1103.3137088 14 1106 16.6862912 1106 20 C 1106 23.3137088 1103.3137088 26 1100 26 C 1096.6862912 26 1094 23.3137088 1094 20 Z" stroke-miterlimit="10" stroke-dasharray=""/></g><g><path fill="none" stroke="#000000" paint-order="fill stroke markers" d=" M 1078 20 C 1078 16.6862912 1080.6862912 14 1084 14 C 1087.3137088 14 1090 16.6862912 1090 20 C 1090 23.3137088 1087.3137088 26 1084 26 C 1080.6862912 26 1078 23.3137088 1078 20 Z" stroke-miterlimit="10" stroke-dasharray=""/></g><g><path fill="none" stroke="#000000" paint-order="fill stroke markers" d=" M 600 14 L 1066 14 Q 1072 14 1072 20 L 1072 20 Q 1072 26 1066 26 L 600 26 Q 594 26 594 20 L 594 20 Q 594 14 600 14 Z" stroke-miterlimit="10" stroke-dasharray=""/></g><g><path fill="#ffffff" stroke="none" paint-order="stroke fill markers" d=" M 1174 10 L 1686 10 Q 1690 10 1690 14 L 1690 786 Q 1690 790 1686 790 L 1174 790 Q 1170 790 1170 786 L 1170 14 Q 1170 10 1174 10 Z"/></g><g><path fill="none" stroke="#000000" paint-order="fill stroke markers" d=" M 1174 10 L 1686 10 Q 1690 10 1690 14 L 1690 786 Q 1690 790 1686 790 L 1174 790 Q 1170 790 1170 786 L 1170 14 Q 1170 10 1174 10 Z" stroke-miterlimit="10" stroke-dasharray=""/></g><g><path fill="none" stroke="#000000" paint-order="fill stroke markers" d=" M 1170 30 L 1690 30" stroke-miterlimit="10" stroke-dasharray=""/></g><g><path fill="none" stroke="#000000" paint-order="fill stroke markers" d=" M 1674 20 C 1674 16.6862912 1676.6862912 14 1680 14 C 1683.3137088 14 1686 16.6862912 1686 20 C 1686 23.3137088 1683.3137088 26 1680 26 C 1676.6862912 26 1674 23.3137088 1674 20 Z" stroke-miterlimit="10" stroke-dasharray=""/></g><g><path fill="none" stroke="#000000" paint-order="fill stroke markers" d=" M 1658 20 C 1658 16.6862912 1660.6862912 14 1664 14 C 1667.3137088 14 1670 16.6862912 1670 20 C 1670 23.3137088 1667.3137088 26 1664 26 C 1660.6862912 26 1658 23.3137088 1658 20 Z" stroke-miterlimit="10" stroke-dasharray=""/></g><g><path fill="none" stroke="#000000" paint-order="fill stroke markers" d=" M 1180 14 L 1646 14 Q 1652 14 1652 20 L 1652 20 Q 1652 26 1646 26 L 1180 26 Q 1174 26 1174 20 L 1174 20 Q 1174 14 1180 14 Z" stroke-miterlimit="10" stroke-dasharray=""/></g><g><path fill="#ffffff" stroke="none" paint-order="stroke fill markers" d=" M 14 850 L 526 850 Q 530 850 530 854 L 530 1626 Q 530 1630 526 1630 L 14 1630 Q 10 1630 10 1626 L 10 854 Q 10 850 14 850 Z"/></g><g><path fill="none" stroke="#000000" paint-order="fill stroke markers" d=" M 14 850 L 526 850 Q 530 850 530 854 L 530 1626 Q 530 1630 526 1630 L 14 1630 Q 10 1630 10 1626 L 10 854 Q 10 850 14 850 Z" stroke-miterlimit="10" stroke-dasharray=""/></g><g><path fill="none" stroke="#000000" paint-order="fill stroke markers" d=" M 10 870 L 530 870" stroke-miterlimit="10" stroke-dasharray=""/></g><g><path fill="none" stroke="#000000" paint-order="fill stroke markers" d=" M 514 860 C 514 856.6862912 516.6862912 854 520 854 C 523.3137088 854 526 856.6862912 526 860 C 526 863.3137088 523.3137088 866 520 866 C 516.6862912 866 514 863.3137088 514 860 Z" stroke-miterlimit="10" stroke-dasharray=""/></g><g><path fill="none" stroke="#000000" paint-order="fill stroke markers" d=" M 498 860 C 498 856.6862912 500.6862912 854 504 854 C 507.3137088 854 510 856.6862912 510 860 C 510 863.3137088 507.3137088 866 504 866 C 500.6862912 866 498 863.3137088 498 860 Z" stroke-miterlimit="10" stroke-dasharray=""/></g><g><path fill="none" stroke="#000000" paint-order="fill stroke markers" d=" M 20 854 L 486 854 Q 492 854 492 860 L 492 860 Q 492 866 486 866 L 20 866 Q 14 866 14 860 L 14 860 Q 14 854 20 854 Z" stroke-miterlimit="10" stroke-dasharray=""/></g><g><path fill="#ffffff" stroke="none" paint-order="stroke fill markers" d=" M 594 850 L 1106 850 Q 1110 850 1110 854 L 1110 1626 Q 1110 1630 1106 1630 L 594 1630 Q 590 1630 590 1626 L 590 854 Q 590 850 594 850 Z"/></g><g><path fill="none" stroke="#000000" paint-order="fill stroke markers" d=" M 594 850 L 1106 850 Q 1110 850 1110 854 L 1110 1626 Q 1110 1630 1106 1630 L 594 1630 Q 590 1630 590 1626 L 590 854 Q 590 850 594 850 Z" stroke-miterlimit="10" stroke-dasharray=""/></g><g><path fill="none" stroke="#000000" paint-order="fill stroke markers" d=" M 590 870 L 1110 870" stroke-miterlimit="10" stroke-dasharray=""/></g><g><path fill="none" stroke="#000000" paint-order="fill stroke markers" d=" M 1094 860 C 1094 856.6862912 1096.6862912 854 1100 854 C 1103.3137088 854 1106 856.6862912 1106 860 C 1106 863.3137088 1103.3137088 866 1100 866 C 1096.6862912 866 1094 863.3137088 1094 860 Z" stroke-miterlimit="10" stroke-dasharray=""/></g><g><path fill="none" stroke="#000000" paint-order="fill stroke markers" d=" M 1078 860 C 1078 856.6862912 1080.6862912 854 1084 854 C 1087.3137088 854 1090 856.6862912 1090 860 C 1090 863.3137088 1087.3137088 866 1084 866 C 1080.6862912 866 1078 863.3137088 1078 860 Z" stroke-miterlimit="10" stroke-dasharray=""/></g><g><path fill="none" stroke="#000000" paint-order="fill stroke markers" d=" M 600 854 L 1066 854 Q 1072 854 1072 860 L 1072 860 Q 1072 866 1066 866 L 600 866 Q 594 866 594 860 L 594 860 Q 594 854 600 854 Z" stroke-miterlimit="10" stroke-dasharray=""/></g><g><g><path fill="none" stroke="none"/><text fill="#000000" stroke="none" font-family="Arial" font-size="13px" font-style="normal" font-weight="normal" text-decoration="undefined" x="64" y="84.5" text-anchor="start" dominant-baseline="central" transform="matrix(1 0 0 1 -30 -30)">License Server Admin</text></g></g><g><rect fill="#ffffff" stroke="none" x="64" y="130" width="108" height="610" transform="matrix(1 0 0 1 -30 -30)"/></g><g><path fill="none" stroke="#000000" paint-order="fill stroke markers" d=" M 34 100 L 142 100 L 142 710 L 34 710 L 34 100 Z Z" stroke-miterlimit="10" stroke-dasharray=""/></g><g><g><path fill="none" stroke="none"/><text fill="#2b71ff" stroke="none" font-family="Arial" font-size="13px" font-style="normal" font-weight="normal" text-decoration="undefined" x="80" y="176.5" text-anchor="start" dominant-baseline="central" transform="matrix(1 0 0 1 -30 -30)">Dashboard</text><path fill="none" stroke="#2b71ff" paint-order="fill stroke markers" d=" M 50 153 L 113.59716796875 153" stroke-miterlimit="10" stroke-dasharray=""/></g></g><g><g><path fill="none" stroke="none"/><text fill="#2b71ff" stroke="none" font-family="Arial" font-size="13px" font-style="normal" font-weight="normal" text-decoration="undefined" x="80" y="212.5" text-anchor="start" dominant-baseline="central" transform="matrix(1 0 0 1 -30 -30)">Licenses</text><path fill="none" stroke="#2b71ff" paint-order="fill stroke markers" d=" M 50 189 L 101.30810546875 189" stroke-miterlimit="10" stroke-dasharray=""/></g></g><g><g><path fill="none" stroke="none"/><text fill="#2b71ff" stroke="none" font-family="Arial" font-size="13px" font-style="normal" font-weight="normal" text-decoration="undefined" x="80" y="248.5" text-anchor="start" dominant-baseline="central" transform="matrix(1 0 0 1 -30 -30)">Activations</text><path fill="none" stroke="#2b71ff" paint-order="fill stroke markers" d=" M 50 225 L 112.86083984375 225" stroke-miterlimit="10" stroke-dasharray=""/></g></g><g><g><path fill="none" stroke="none"/><text fill="#2b71ff" stroke="none" font-family="Arial" font-size="13px" font-style="normal" font-weight="normal" text-decoration="undefined" x="80" y="284.5" text-anchor="start" dominant-baseline="central" transform="matrix(1 0 0 1 -30 -30)">Products</text><path fill="none" stroke="#2b71ff" paint-order="fill stroke markers" d=" M 50 261 L 101.3017578125 261" stroke-miterlimit="10" stroke-dasharray=""/></g></g><g><g><path fill="none" stroke="none"/><text fill="#2b71ff" stroke="none" font-family="Arial" font-size="13px" font-style="normal" font-weight="normal" text-decoration="undefined" x="80" y="320.5" text-anchor="start" dominant-baseline="central" transform="matrix(1 0 0 1 -30 -30)">Orders</text><path fill="none" stroke="#2b71ff" paint-order="fill stroke markers" d=" M 50 297 L 89.72998046875 297" stroke-miterlimit="10" stroke-dasharray=""/></g></g><g><path fill="#ffffff" stroke="none" paint-order="stroke fill markers" d=" M 454 65 C 454 54.5065888 462.5065888 46 473 46 C 483.49341119999997 46 492 54.5065888 492 65 C 492 75.4934112 483.49341119999997 84 473 84 C 462.5065888 84 454 75.4934112 454 65 Z"/></g><g><path fill="none" stroke="#000000" paint-order="fill stroke markers" d=" M 454 65 C 454 54.5065888 462.5065888 46 473 46 C 483.49341119999997 46 492 54.5065888 492 65 C 492 75.4934112 483.49341119999997 84 473 84 C 462.5065888 84 454 75.4934112 454 65 Z" stroke-miterlimit="10" stroke-dasharray=""/></g><g><path fill="none" stroke="#000000" paint-order="fill stroke markers" d=" M 467.3 59.3 C 467.3 56.15197664 469.85197664000003 53.599999999999994 473 53.599999999999994 C 476.14802335999997 53.599999999999994 478.7 56.15197664 478.7 59.3 C 478.7 62.44802335999999 476.14802335999997 65 473 65 C 469.85197664000003 65 467.3 62.44802335999999 467.3 59.3 Z" stroke-miterlimit="10" stroke-dasharray=""/></g><g><path fill="none" stroke="#000000" paint-order="fill stroke markers" d=" M 468.45 65 L 477.55 65 Q 481.55 65 481.55 69 L 481.55 76.4 Q 481.55 76.4 481.55 76.4 L 464.45 76.4 Q 464.45 76.4 464.45 76.4 L 464.45 69 Q 464.45 65 468.45 65 Z" stroke-miterlimit="10" stroke-dasharray=""/></g><g><g><path fill="none" stroke="none"/><text fill="#000000" stroke="none" font-family="Arial" font-size="13px" font-style="normal" font-weight="normal" text-decoration="undefined" x="206" y="138.5" text-anchor="start" dominant-baseline="central" transform="matrix(1 0 0 1 -30 -30)">Dashboard Overview</text></g></g><g><rect fill="#ffffff" stroke="none" x="206" y="184" width="100" height="70" transform="matrix(1 0 0 1 -30 -30)"/></g><g><path fill="none" stroke="#000000" paint-order="fill stroke markers" d=" M 176 154 L 276 154 L 276 224 L 176 224 L 176 154 Z Z" stroke-miterlimit="10" stroke-dasharray=""/></g><g><rect fill="#ffffff" stroke="none" x="320" y="184" width="100" height="70" transform="matrix(1 0 0 1 -30 -30)"/></g><g><path fill="none" stroke="#000000" paint-order="fill stroke markers" d=" M 290 154 L 390 154 L 390 224 L 290 224 L 290 154 Z Z" stroke-miterlimit="10" stroke-dasharray=""/></g><g><rect fill="#ffffff" stroke="none" x="434" y="184" width="92" height="70" transform="matrix(1 0 0 1 -30 -30)"/></g><g><path fill="none" stroke="#000000" paint-order="fill stroke markers" d=" M 404 154 L 496 154 L 496 224 L 404 224 L 404 154 Z Z" stroke-miterlimit="10" stroke-dasharray=""/></g><g><rect fill="#ffffff" stroke="none" x="206" y="286" width="320" height="204" transform="matrix(1 0 0 1 -30 -30)"/></g><g><path fill="none" stroke="#000000" paint-order="fill stroke markers" d=" M 176 256 L 496 256 L 496 460 L 176 460 L 176 256 Z Z" stroke-miterlimit="10" stroke-dasharray=""/></g><g><rect fill="#ffffff" stroke="none" x="206" y="520" width="320" height="170" transform="matrix(1 0 0 1 -30 -30)"/></g><g><path fill="none" stroke="#000000" paint-order="fill stroke markers" d=" M 176 490 L 496 490 L 496 660 L 176 660 L 176 490 Z Z" stroke-miterlimit="10" stroke-dasharray=""/></g><g><g><path fill="none" stroke="none"/><text fill="#000000" stroke="none" font-family="Arial" font-size="13px" font-style="normal" font-weight="normal" text-decoration="undefined" x="646" y="84.5" text-anchor="start" dominant-baseline="central" transform="matrix(1 0 0 1 -30 -30)">Licenses</text></g></g><g><path fill="#ffffff" stroke="none" paint-order="stroke fill markers" d=" M 620 98 L 802 98 Q 806 98 806 102 L 806 124 Q 806 128 802 128 L 620 128 Q 616 128 616 124 L 616 102 Q 616 98 620 98 Z"/></g><g><path fill="none" stroke="#000000" paint-order="fill stroke markers" d=" M 620 98 L 802 98 Q 806 98 806 102 L 806 124 Q 806 128 802 128 L 620 128 Q 616 128 616 124 L 616 102 Q 616 98 620 98 Z" stroke-miterlimit="10" stroke-dasharray=""/></g><g><g><path fill="none" stroke="none"/><text fill="#000000" stroke="none" font-family="Arial" font-size="13px" font-style="normal" font-weight="normal" text-decoration="undefined" x="654" y="140.5" text-anchor="start" dominant-baseline="central" transform="matrix(1 0 0 1 -30 -30)">Search license / email</text></g></g><g><path fill="#ffffff" stroke="none" paint-order="stroke fill markers" d=" M 826 98 L 918 98 Q 922 98 922 102 L 922 124 Q 922 128 918 128 L 826 128 Q 822 128 822 124 L 822 102 Q 822 98 826 98 Z"/></g><g><path fill="none" stroke="#000000" paint-order="fill stroke markers" d=" M 826 98 L 918 98 Q 922 98 922 102 L 922 124 Q 922 128 918 128 L 826 128 Q 822 128 822 124 L 822 102 Q 822 98 826 98 Z" stroke-miterlimit="10" stroke-dasharray=""/></g><g><path fill="none" stroke="#000000" paint-order="fill stroke markers" d=" M 914 111 L 911 115" stroke-miterlimit="10" stroke-dasharray=""/></g><g><path fill="none" stroke="#000000" paint-order="fill stroke markers" d=" M 911 115 L 908 111" stroke-miterlimit="10" stroke-dasharray=""/></g><g><g><path fill="none" stroke="none"/><text fill="#000000" stroke="none" font-family="Arial" font-size="13px" font-style="normal" font-weight="normal" text-decoration="undefined" x="860" y="140.5" text-anchor="start" dominant-baseline="central" transform="matrix(1 0 0 1 -30 -30)">Status: all</text></g></g><g><path fill="#ffffff" stroke="none" paint-order="stroke fill markers" d=" M 1012 98 L 1080 98 Q 1084 98 1084 102 L 1084 124 Q 1084 128 1080 128 L 1012 128 Q 1008 128 1008 124 L 1008 102 Q 1008 98 1012 98 Z"/></g><g><path fill="none" stroke="#000000" paint-order="fill stroke markers" d=" M 1012 98 L 1080 98 Q 1084 98 1084 102 L 1084 124 Q 1084 128 1080 128 L 1012 128 Q 1008 128 1008 124 L 1008 102 Q 1008 98 1012 98 Z" stroke-miterlimit="10" stroke-dasharray=""/></g><g><g><path fill="none" stroke="none"/><text fill="#000000" stroke="none" font-family="Arial" font-size="13px" font-style="normal" font-weight="normal" text-decoration="undefined" x="1076" y="144.5" text-anchor="middle" dominant-baseline="central" transform="matrix(1 0 0 1 -30 -30)">New license</text></g></g><g><rect fill="#ffffff" stroke="none" x="646" y="182" width="468" height="256" transform="matrix(1 0 0 1 -30 -30)"/></g><g><path fill="none" stroke="#000000" paint-order="fill stroke markers" d=" M 616 152 L 1084 152 L 1084 408 L 616 408 L 616 152 Z Z" stroke-miterlimit="10" stroke-dasharray=""/></g><g><rect fill="#ffffff" stroke="none" x="646" y="470" width="468" height="206" transform="matrix(1 0 0 1 -30 -30)"/></g><g><path fill="none" stroke="#000000" paint-order="fill stroke markers" d=" M 616 440 L 1084 440 L 1084 646 L 616 646 L 616 440 Z Z" stroke-miterlimit="10" stroke-dasharray=""/></g><g><g><path fill="none" stroke="none"/><text fill="#000000" stroke="none" font-family="Arial" font-size="13px" font-style="normal" font-weight="normal" text-decoration="undefined" x="1226" y="84.5" text-anchor="start" dominant-baseline="central" transform="matrix(1 0 0 1 -30 -30)">Activations</text></g></g><g><path fill="#ffffff" stroke="none" paint-order="stroke fill markers" d=" M 1200 98 L 1372 98 Q 1376 98 1376 102 L 1376 124 Q 1376 128 1372 128 L 1200 128 Q 1196 128 1196 124 L 1196 102 Q 1196 98 1200 98 Z"/></g><g><path fill="none" stroke="#000000" paint-order="fill stroke markers" d=" M 1200 98 L 1372 98 Q 1376 98 1376 102 L 1376 124 Q 1376 128 1372 128 L 1200 128 Q 1196 128 1196 124 L 1196 102 Q 1196 98 1200 98 Z" stroke-miterlimit="10" stroke-dasharray=""/></g><g><g><path fill="none" stroke="none"/><text fill="#000000" stroke="none" font-family="Arial" font-size="13px" font-style="normal" font-weight="normal" text-decoration="undefined" x="1234" y="140.5" text-anchor="start" dominant-baseline="central" transform="matrix(1 0 0 1 -30 -30)">Search device / serial</text></g></g><g><path fill="#ffffff" stroke="none" paint-order="stroke fill markers" d=" M 1396 98 L 1486.4853515625 98 Q 1490.4853515625 98 1490.4853515625 102 L 1490.4853515625 124 Q 1490.4853515625 128 1486.4853515625 128 L 1396 128 Q 1392 128 1392 124 L 1392 102 Q 1392 98 1396 98 Z"/></g><g><path fill="none" stroke="#000000" paint-order="fill stroke markers" d=" M 1396 98 L 1486.4853515625 98 Q 1490.4853515625 98 1490.4853515625 102 L 1490.4853515625 124 Q 1490.4853515625 128 1486.4853515625 128 L 1396 128 Q 1392 128 1392 124 L 1392 102 Q 1392 98 1396 98 Z" stroke-miterlimit="10" stroke-dasharray=""/></g><g><path fill="none" stroke="#000000" paint-order="fill stroke markers" d=" M 1482.4853515625 111 L 1479.4853515625 115" stroke-miterlimit="10" stroke-dasharray=""/></g><g><path fill="none" stroke="#000000" paint-order="fill stroke markers" d=" M 1479.4853515625 115 L 1476.4853515625 111" stroke-miterlimit="10" stroke-dasharray=""/></g><g><g><path fill="none" stroke="none"/><text fill="#000000" stroke="none" font-family="Arial" font-size="13px" font-style="normal" font-weight="normal" text-decoration="undefined" x="1430" y="140.5" text-anchor="start" dominant-baseline="central" transform="matrix(1 0 0 1 -30 -30)">Status: active</text></g></g><g><path fill="#ffffff" stroke="none" paint-order="stroke fill markers" d=" M 1506 98 L 1600 98 Q 1604 98 1604 102 L 1604 124 Q 1604 128 1600 128 L 1506 128 Q 1502 128 1502 124 L 1502 102 Q 1502 98 1506 98 Z"/></g><g><path fill="none" stroke="#000000" paint-order="fill stroke markers" d=" M 1506 98 L 1600 98 Q 1604 98 1604 102 L 1604 124 Q 1604 128 1600 128 L 1506 128 Q 1502 128 1502 124 L 1502 102 Q 1502 98 1506 98 Z" stroke-miterlimit="10" stroke-dasharray=""/></g><g><path fill="none" stroke="#000000" paint-order="fill stroke markers" d=" M 1596 111 L 1593 115" stroke-miterlimit="10" stroke-dasharray=""/></g><g><path fill="none" stroke="#000000" paint-order="fill stroke markers" d=" M 1593 115 L 1590 111" stroke-miterlimit="10" stroke-dasharray=""/></g><g><g><path fill="none" stroke="none"/><text fill="#000000" stroke="none" font-family="Arial" font-size="13px" font-style="normal" font-weight="normal" text-decoration="undefined" x="1540" y="140.5" text-anchor="start" dominant-baseline="central" transform="matrix(1 0 0 1 -30 -30)">Trust: all</text></g></g><g><rect fill="#ffffff" stroke="none" x="1226" y="182" width="460" height="256" transform="matrix(1 0 0 1 -30 -30)"/></g><g><path fill="none" stroke="#000000" paint-order="fill stroke markers" d=" M 1196 152 L 1656 152 L 1656 408 L 1196 408 L 1196 152 Z Z" stroke-miterlimit="10" stroke-dasharray=""/></g><g><rect fill="#ffffff" stroke="none" x="1226" y="470" width="460" height="206" transform="matrix(1 0 0 1 -30 -30)"/></g><g><path fill="none" stroke="#000000" paint-order="fill stroke markers" d=" M 1196 440 L 1656 440 L 1656 646 L 1196 646 L 1196 440 Z Z" stroke-miterlimit="10" stroke-dasharray=""/></g><g><g><path fill="none" stroke="none"/><text fill="#000000" stroke="none" font-family="Arial" font-size="13px" font-style="normal" font-weight="normal" text-decoration="undefined" x="66" y="924.5" text-anchor="start" dominant-baseline="central" transform="matrix(1 0 0 1 -30 -30)">Products</text></g></g><g><path fill="#ffffff" stroke="none" paint-order="stroke fill markers" d=" M 40 938 L 212 938 Q 216 938 216 942 L 216 964 Q 216 968 212 968 L 40 968 Q 36 968 36 964 L 36 942 Q 36 938 40 938 Z"/></g><g><path fill="none" stroke="#000000" paint-order="fill stroke markers" d=" M 40 938 L 212 938 Q 216 938 216 942 L 216 964 Q 216 968 212 968 L 40 968 Q 36 968 36 964 L 36 942 Q 36 938 40 938 Z" stroke-miterlimit="10" stroke-dasharray=""/></g><g><path fill="none" stroke="#000000" paint-order="fill stroke markers" d=" M 208 951 L 205 955" stroke-miterlimit="10" stroke-dasharray=""/></g><g><path fill="none" stroke="#000000" paint-order="fill stroke markers" d=" M 205 955 L 202 951" stroke-miterlimit="10" stroke-dasharray=""/></g><g><g><path fill="none" stroke="none"/><text fill="#000000" stroke="none" font-family="Arial" font-size="13px" font-style="normal" font-weight="normal" text-decoration="undefined" x="74" y="980.5" text-anchor="start" dominant-baseline="central" transform="matrix(1 0 0 1 -30 -30)">Type: plugin / sample_pack</text></g></g><g><path fill="#ffffff" stroke="none" paint-order="stroke fill markers" d=" M 416 938 L 502 938 Q 506 938 506 942 L 506 964 Q 506 968 502 968 L 416 968 Q 412 968 412 964 L 412 942 Q 412 938 416 938 Z"/></g><g><path fill="none" stroke="#000000" paint-order="fill stroke markers" d=" M 416 938 L 502 938 Q 506 938 506 942 L 506 964 Q 506 968 502 968 L 416 968 Q 412 968 412 964 L 412 942 Q 412 938 416 938 Z" stroke-miterlimit="10" stroke-dasharray=""/></g><g><g><path fill="none" stroke="none"/><text fill="#000000" stroke="none" font-family="Arial" font-size="13px" font-style="normal" font-weight="normal" text-decoration="undefined" x="489" y="984.5" text-anchor="middle" dominant-baseline="central" transform="matrix(1 0 0 1 -30 -30)">Create product</text></g></g><g><rect fill="#ffffff" stroke="none" x="66" y="1024" width="202" height="434" transform="matrix(1 0 0 1 -30 -30)"/></g><g><path fill="none" stroke="#000000" paint-order="fill stroke markers" d=" M 36 994 L 238 994 L 238 1428 L 36 1428 L 36 994 Z Z" stroke-miterlimit="10" stroke-dasharray=""/></g><g><rect fill="#ffffff" stroke="none" x="290" y="1024" width="246" height="218" transform="matrix(1 0 0 1 -30 -30)"/></g><g><path fill="none" stroke="#000000" paint-order="fill stroke markers" d=" M 260 994 L 506 994 L 506 1212 L 260 1212 L 260 994 Z Z" stroke-miterlimit="10" stroke-dasharray=""/></g><g><rect fill="#ffffff" stroke="none" x="290" y="1272" width="246" height="186" transform="matrix(1 0 0 1 -30 -30)"/></g><g><path fill="none" stroke="#000000" paint-order="fill stroke markers" d=" M 260 1242 L 506 1242 L 506 1428 L 260 1428 L 260 1242 Z Z" stroke-miterlimit="10" stroke-dasharray=""/></g><g><g><path fill="none" stroke="none"/><text fill="#000000" stroke="none" font-family="Arial" font-size="13px" font-style="normal" font-weight="normal" text-decoration="undefined" x="646" y="924.5" text-anchor="start" dominant-baseline="central" transform="matrix(1 0 0 1 -30 -30)">Orders / review</text></g></g><g><path fill="#ffffff" stroke="none" paint-order="stroke fill markers" d=" M 620 938 L 726 938 Q 730 938 730 942 L 730 964 Q 730 968 726 968 L 620 968 Q 616 968 616 964 L 616 942 Q 616 938 620 938 Z"/></g><g><path fill="none" stroke="#000000" paint-order="fill stroke markers" d=" M 620 938 L 726 938 Q 730 938 730 942 L 730 964 Q 730 968 726 968 L 620 968 Q 616 968 616 964 L 616 942 Q 616 938 620 938 Z" stroke-miterlimit="10" stroke-dasharray=""/></g><g><path fill="none" stroke="#000000" paint-order="fill stroke markers" d=" M 722 951 L 719 955" stroke-miterlimit="10" stroke-dasharray=""/></g><g><path fill="none" stroke="#000000" paint-order="fill stroke markers" d=" M 719 955 L 716 951" stroke-miterlimit="10" stroke-dasharray=""/></g><g><g><path fill="none" stroke="none"/><text fill="#000000" stroke="none" font-family="Arial" font-size="13px" font-style="normal" font-weight="normal" text-decoration="undefined" x="654" y="980.5" text-anchor="start" dominant-baseline="central" transform="matrix(1 0 0 1 -30 -30)">Status: pending</text></g></g><g><path fill="#ffffff" stroke="none" paint-order="stroke fill markers" d=" M 752 938 L 900 938 Q 904 938 904 942 L 904 964 Q 904 968 900 968 L 752 968 Q 748 968 748 964 L 748 942 Q 748 938 752 938 Z"/></g><g><path fill="none" stroke="#000000" paint-order="fill stroke markers" d=" M 752 938 L 900 938 Q 904 938 904 942 L 904 964 Q 904 968 900 968 L 752 968 Q 748 968 748 964 L 748 942 Q 748 938 752 938 Z" stroke-miterlimit="10" stroke-dasharray=""/></g><g><g><path fill="none" stroke="none"/><text fill="#000000" stroke="none" font-family="Arial" font-size="13px" font-style="normal" font-weight="normal" text-decoration="undefined" x="786" y="980.5" text-anchor="start" dominant-baseline="central" transform="matrix(1 0 0 1 -30 -30)">Search order / email</text></g></g><g><path fill="#ffffff" stroke="none" paint-order="stroke fill markers" d=" M 996 938 L 1080 938 Q 1084 938 1084 942 L 1084 964 Q 1084 968 1080 968 L 996 968 Q 992 968 992 964 L 992 942 Q 992 938 996 938 Z"/></g><g><path fill="none" stroke="#000000" paint-order="fill stroke markers" d=" M 996 938 L 1080 938 Q 1084 938 1084 942 L 1084 964 Q 1084 968 1080 968 L 996 968 Q 992 968 992 964 L 992 942 Q 992 938 996 938 Z" stroke-miterlimit="10" stroke-dasharray=""/></g><g><g><path fill="none" stroke="none"/><text fill="#000000" stroke="none" font-family="Arial" font-size="13px" font-style="normal" font-weight="normal" text-decoration="undefined" x="1068" y="984.5" text-anchor="middle" dominant-baseline="central" transform="matrix(1 0 0 1 -30 -30)">Export CSV</text></g></g><g><rect fill="#ffffff" stroke="none" x="646" y="1024" width="204" height="434" transform="matrix(1 0 0 1 -30 -30)"/></g><g><path fill="none" stroke="#000000" paint-order="fill stroke markers" d=" M 616 994 L 820 994 L 820 1428 L 616 1428 L 616 994 Z Z" stroke-miterlimit="10" stroke-dasharray=""/></g><g><rect fill="#ffffff" stroke="none" x="872" y="1024" width="242" height="218" transform="matrix(1 0 0 1 -30 -30)"/></g><g><path fill="none" stroke="#000000" paint-order="fill stroke markers" d=" M 842 994 L 1084 994 L 1084 1212 L 842 1212 L 842 994 Z Z" stroke-miterlimit="10" stroke-dasharray=""/></g><g><rect fill="#ffffff" stroke="none" x="872" y="1272" width="242" height="186" transform="matrix(1 0 0 1 -30 -30)"/></g><g><path fill="none" stroke="#000000" paint-order="fill stroke markers" d=" M 842 1242 L 1084 1242 L 1084 1428 L 842 1428 L 842 1242 Z Z" stroke-miterlimit="10" stroke-dasharray=""/></g></g></svg>