<svg version="1.1" xmlns="http://www.w3.org/2000/svg" xmlns:xlink="http://www.w3.org/1999/xlink" width="1700" height="1640"><defs/><g><g><path fill="#ffffff" stroke="none" paint-order="stroke fill markers" d=" M 14 10 L 526 10 Q 530 10 530 14 L 530 786 Q 530 790 526 790 L 14 790 Q 10 790 10 786 L 10 14 Q 10 10 14 10 Z"/></g><g><path fill="none" stroke="#000000" paint-order="fill stroke markers" d=" M 14 10 L 526 10 Q 530 10 530 14 L 530 786 Q 530 790 526 790 L 14 790 Q 10 790 10 786 L 10 14 Q 10 10 14 10 Z" stroke-miterlimit="10" stroke-dasharray=""/></g><g><path fill="none" stroke="#000000" paint-order="fill stroke markers" d=" M 10 30 L 530 30" stroke-miterlimit="10" stroke-dasharray=""/></g><g><path fill="none" stroke="#000000" paint-order="fill stroke markers" d=" M 514 20 C 514 16.6862912 516.6862912 14 520 14 C 523.3137088 14 526 16.6862912 526 20 C 526 23.3137088 523.3137088 26 520 26 C 516.6862912 26 514 23.3137088 514 20 Z" stroke-miterlimit="10" stroke-dasharray=""/></g><g><path fill="none" stroke="#000000" paint-order="fill stroke markers" d=" M 498 20 C 498 16.6862912 500.6862912 14 504 14 C 507.3137088 14 510 16.6862912 510 20 C 510 23.3137088 507.3137088 26 504 26 C 500.6862912 26 498 23.3137088 498 20 Z" stroke-miterlimit="10" stroke-dasharray=""/></g><g><path fill="none" stroke="#000000" paint-order="fill stroke markers" d=" M 20 14 L 486 14 Q 492 14 492 20 L 492 20 Q 492 26 486 26 L 20 26 Q 14 26 14 20 L 14 20 Q 14 14 20 14 Z" stroke-miterlimit="10" stroke-dasharray=""/></g><g><path fill="#ffffff" stroke="none" paint-order="stroke fill markers" d=" M 594 10 L 1106 10 Q 1110 10 1110 14 L 1110 786 Q 1110 790 1106 790 L 594 790 Q 590 790 590 786 L 590 14 Q 590 10 594 10 Z"/></g><g><path fill="none" stroke="#000000" paint-order="fill stroke markers" d=" M 594 10 L 1106 10 Q 1110 10 1110 14 L 1110 786 Q 1110 790 1106 790 L 594 790 Q 590 790 590 786 L 590 14 Q 590 10 594 10 Z" stroke-miterlimit="10" stroke-dasharray=""/></g><g><path fill="none" stroke="#000000" paint-order="fill stroke markers" d=" M 590 30 L 1110 30" stroke-miterlimit="10" stroke-dasharray=""/></g><g><path fill="none" stroke="#000000" paint-order="fill stroke markers" d=" M 1094 20 C 1094 16.6862912 1096.6862912 14 1100 14 C 1103.3137088 14 1106 16.6862912 1106 20 C 1106 23.3137088 1103.3137088 26 1100 26 C 1096.6862912 26 1094 23.3137088 1094 20 Z" stroke-miterlimit="10" stroke-dasharray=""/></g><g><path fill="none" stroke="#000000" paint-order="fill stroke markers" d=" M 1078 20 C 1078 16.6862912 1080.6862912 14 1084 14 C 1087.3137088 14 1090 16.6862912 1090 20 C 1090 23.3137088 1087.3137088 26 1084 26 C 1080.6862912 26 1078 23.3137088 1078 20 Z" stroke-miterlimit="10" stroke-dasharray=""/></g><g><path fill="none" stroke="#000000" paint-order="fill stroke markers" d=" M 600 14 L 1066 14 Q 1072 14 1072 20 L 1072 20 Q 1072 26 1066 26 L 600 26 Q 594 26 594 20 L 594 20 Q 594 14 600 14 Z" stroke-miterlimit="10" stroke-dasharray=""/></g><g><path fill="#ffffff" stroke="none" paint-order="stroke fill markers" d=" M 1174 10 L 1686 10 Q 1690 10 1690 14 L 1690 786 Q 1690 790 1686 790 L 1174 790 Q 1170 790 1170 786 L 1170 14 Q 1170 10 1174 10 Z"/></g><g><path fill="none" stroke="#000000" paint-order="fill stroke markers" d=" M 1174 10 L 1686 10 Q 1690 10 1690 14 L 1690 786 Q 1690 790 1686 790 L 1174 790 Q 1170 790 1170 786 L 1170 14 Q 1170 10 1174 10 Z" stroke-miterlimit="10" stroke-dasharray=""/></g><g><path fill="none" stroke="#000000" paint-order="fill stroke markers" d=" M 1170 30 L 1690 30" stroke-miterlimit="10" stroke-dasharray=""/></g><g><path fill="none" stroke="#000000" paint-order="fill stroke markers" d=" M 1674 20 C 1674 16.6862912 1676.6862912 14 1680 14 C 1683.3137088 14 1686 16.6862912 1686 20 C 1686 23.3137088 1683.3137088 26 1680 26 C 1676.6862912 26 1674 23.3137088 1674 20 Z" stroke-miterlimit="10" stroke-dasharray=""/></g><g><path fill="none" stroke="#000000" paint-order="fill stroke markers" d=" M 1658 20 C 1658 16.6862912 1660.6862912 14 1664 14 C 1667.3137088 14 1670 16.6862912 1670 20 C 1670 23.3137088 1667.3137088 26 1664 26 C 1660.6862912 26 1658 23.3137088 1658 20 Z" stroke-miterlimit="10" stroke-dasharray=""/></g><g><path fill="none" stroke="#000000" paint-order="fill stroke markers" d=" M 1180 14 L 1646 14 Q 1652 14 1652 20 L 1652 20 Q 1652 26 1646 26 L 1180 26 Q 1174 26 1174 20 L 1174 20 Q 1174 14 1180 14 Z" stroke-miterlimit="10" stroke-dasharray=""/></g><g><path fill="#ffffff" stroke="none" paint-order="stroke fill markers" d=" M 14 850 L 526 850 Q 530 850 530 854 L 530 1626 Q 530 1630 526 1630 L 14 1630 Q 10 1630 10 1626 L 10 854 Q 10 850 14 850 Z"/></g><g><path fill="none" stroke="#000000" paint-order="fill stroke markers" d=" M 14 850 L 526 850 Q 530 850 530 854 L 530 1626 Q 530 1630 526 1630 L 14 1630 Q 10 1630 10 1626 L 10 854 Q 10 850 14 850 Z" stroke-miterlimit="10" stroke-dasharray=""/></g><g><path fill="none" stroke="#000000" paint-order="fill stroke markers" d=" M 10 870 L 530 870" stroke-miterlimit="10" stroke-dasharray=""/></g><g><path fill="none" stroke="#000000" paint-order="fill stroke markers" d=" M 514 860 C 514 856.6862912 516.6862912 854 520 854 C 523.3137088 854 526 856.6862912 526 860 C 526 863.3137088 523.3137088 866 520 866 C 516.6862912 866 514 863.3137088 514 860 Z" stroke-miterlimit="10" stroke-dasharray=""/></g><g><path fill="none" stroke="#000000" paint-order="fill stroke markers" d=" M 498 860 C 498 856.6862912 500.6862912 854 504 854 C 507.3137088 854 510 856.6862912 510 860 C 510 863.3137088 507.3137088 866 504 866 C 500.6862912 866 498 863.3137088 498 860 Z" stroke-miterlimit="10" stroke-dasharray=""/></g><g><path fill="none" stroke="#000000" paint-order="fill stroke markers" d=" M 20 854 L 486 854 Q 492 854 492 860 L 492 860 Q 492 866 486 866 L 20 866 Q 14 866 14 860 L 14 860 Q 14 854 20 854 Z" stroke-miterlimit="10" stroke-dasharray=""/></g><g><path fill="#ffffff" stroke="none" paint-order="stroke fill markers" d=" M 594 850 L 1106 850 Q 1110 850 1110 854 L 1110 1626 Q 1110 1630 1106 1630 L 594 1630 Q 590 1630 590 1626 L 590 854 Q 590 850 594 850 Z"/></g><g><path fill="none" stroke="#000000" paint-order="fill stroke markers" d=" M 594 850 L 1106 850 Q 1110 850 1110 854 L 1110 1626 Q 1110 1630 1106 1630 L 594 1630 Q 590 1630 590 1626 L 590 854 Q 590 850 594 850 Z" stroke-miterlimit="10" stroke-dasharray=""/></g><g><path fill="none" stroke="#000000" paint-order="fill stroke markers" d=" M 590 870 L 1110 870" stroke-miterlimit="10" stroke-dasharray=""/></g><g><path fill="none" stroke="#000000" paint-order="fill stroke markers" d=" M 1094 860 C 1094 856.6862912 1096.6862912 854 1100 854 C 1103.3137088 854 1106 856.6862912 1106 860 C 1106 863.3137088 1103.3137088 866 1100 866 C 1096.6862912 866 1094 863.3137088 1094 860 Z" stroke-miterlimit="10" stroke-dasharray=""/></g><g><path fill="none" stroke="#000000" paint-order="fill stroke markers" d=" M 1078 860 C 1078 856.6862912 1080.6862912 854 1084 854 C 1087.3137088 854 1090 856.6862912 1090 860 C 1090 863.3137088 1087.3137088 866 1084 866 C 1080.6862912 866 1078 863.3137088 1078 860 Z" stroke-miterlimit="10" stroke-dasharray=""/></g><g><path fill="none" stroke="#000000" paint-order="fill stroke markers" d=" M 600 854 L 1066 854 Q 1072 854 1072 860 L 1072 860 Q 1072 866 1066 866 L 600 866 Q 594 866 594 860 L 594 860 Q 594 854 600 854 Z" stroke-miterlimit="10" stroke-dasharray=""/></g><g><g><path fill="none" stroke="none"/><text fill="#000000" stroke="none" font-family="Arial" font-size="13px" font-style="normal" font-weight="normal" text-decoration="undefined" x="64" y="84.5" text-anchor="start" dominant-baseline="central" transform="matrix(1 0 0 1 -30 -30)">Samplero</text></g></g><g><g><path fill="none" stroke="none"/><text fill="#2b71ff" stroke="none" font-family="Arial" font-size="13px" font-style="normal" font-weight="normal" text-decoration="undefined" x="252" y="86.5" text-anchor="start" dominant-baseline="central" transform="matrix(1 0 0 1 -30 -30)">Products</text><path fill="none" stroke="#2b71ff" paint-order="fill stroke markers" d=" M 222 63 L 273.3017578125 63" stroke-miterlimit="10" stroke-dasharray=""/></g></g><g><g><path fill="none" stroke="none"/><text fill="#2b71ff" stroke="none" font-family="Arial" font-size="13px" font-style="normal" font-weight="normal" text-decoration="undefined" x="332" y="86.5" text-anchor="start" dominant-baseline="central" transform="matrix(1 0 0 1 -30 -30)">Downloads</text><path fill="none" stroke="#2b71ff" paint-order="fill stroke markers" d=" M 302 63 L 366.314453125 63" stroke-miterlimit="10" stroke-dasharray=""/></g></g><g><path fill="#ffffff" stroke="none" paint-order="stroke fill markers" d=" M 430 44 L 492 44 Q 496 44 496 48 L 496 72 Q 496 76 492 76 L 430 76 Q 426 76 426 72 L 426 48 Q 426 44 430 44 Z"/></g><g><path fill="none" stroke="#000000" paint-order="fill stroke markers" d=" M 430 44 L 492 44 Q 496 44 496 48 L 496 72 Q 496 76 492 76 L 430 76 Q 426 76 426 72 L 426 48 Q 426 44 430 44 Z" stroke-miterlimit="10" stroke-dasharray=""/></g><g><g><path fill="none" stroke="none"/><text fill="#000000" stroke="none" font-family="Arial" font-size="13px" font-style="normal" font-weight="normal" text-decoration="undefined" x="491" y="91.5" text-anchor="middle" dominant-baseline="central" transform="matrix(1 0 0 1 -30 -30)">Sign in</text></g></g><g><g><path fill="none" stroke="none"/><text fill="#000000" stroke="none" font-family="Arial" font-size="13px" font-style="normal" font-weight="normal" text-decoration="undefined" x="64" y="152.5" text-anchor="start" dominant-baseline="central" transform="matrix(1 0 0 1 -30 -30)">Samplero VST Bundle</text></g></g><g><rect fill="#ffffff" stroke="none" x="64" y="194" width="240" height="72" transform="matrix(1 0 0 1 -30 -30)"/></g><g><path fill="none" stroke="#000000" paint-order="fill stroke markers" d=" M 34 164 L 274 164 L 274 236 L 34 236 L 34 164 Z Z" stroke-miterlimit="10" stroke-dasharray=""/></g><g><path fill="#ffffff" stroke="none" paint-order="stroke fill markers" d=" M 38 256 L 134 256 Q 138 256 138 260 L 138 284 Q 138 288 134 288 L 38 288 Q 34 288 34 284 L 34 260 Q 34 256 38 256 Z"/></g><g><path fill="none" stroke="#000000" paint-order="fill stroke markers" d=" M 38 256 L 134 256 Q 138 256 138 260 L 138 284 Q 138 288 134 288 L 38 288 Q 34 288 34 284 L 34 260 Q 34 256 38 256 Z" stroke-miterlimit="10" stroke-dasharray=""/></g><g><g><path fill="none" stroke="none"/><text fill="#000000" stroke="none" font-family="Arial" font-size="13px" font-style="normal" font-weight="normal" text-decoration="undefined" x="116" y="303.5" text-anchor="middle" dominant-baseline="central" transform="matrix(1 0 0 1 -30 -30)">Buy now — $99</text></g></g><g><path fill="#ffffff" stroke="none" paint-order="stroke fill markers" d=" M 158 256 L 242 256 Q 246 256 246 260 L 246 284 Q 246 288 242 288 L 158 288 Q 154 288 154 284 L 154 260 Q 154 256 158 256 Z"/></g><g><path fill="none" stroke="#000000" paint-order="fill stroke markers" d=" M 158 256 L 242 256 Q 246 256 246 260 L 246 284 Q 246 288 242 288 L 158 288 Q 154 288 154 284 L 154 260 Q 154 256 158 256 Z" stroke-miterlimit="10" stroke-dasharray=""/></g><g><g><path fill="none" stroke="none"/><text fill="#000000" stroke="none" font-family="Arial" font-size="13px" font-style="normal" font-weight="normal" text-decoration="undefined" x="230" y="303.5" text-anchor="middle" dominant-baseline="central" transform="matrix(1 0 0 1 -30 -30)">Watch demo</text></g></g><g><rect fill="#ffffff" stroke="none" x="332" y="146" width="194" height="172" transform="matrix(1 0 0 1 -30 -30)"/></g><g><path fill="none" stroke="#000000" paint-order="fill stroke markers" d=" M 302 116 L 496 116 L 496 288 L 302 288 L 302 116 Z Z" stroke-miterlimit="10" stroke-dasharray=""/></g><g><path fill="none" stroke="#000000" paint-order="fill stroke markers" d=" M 302 116 L 496 288" stroke-miterlimit="10" stroke-dasharray=""/></g><g><path fill="none" stroke="#000000" paint-order="fill stroke markers" d=" M 496 116 L 302 288" stroke-miterlimit="10" stroke-dasharray=""/></g><g><rect fill="#ffffff" stroke="none" x="64" y="354" width="240" height="152" transform="matrix(1 0 0 1 -30 -30)"/></g><g><path fill="none" stroke="#000000" paint-order="fill stroke markers" d=" M 34 324 L 274 324 L 274 476 L 34 476 L 34 324 Z Z" stroke-miterlimit="10" stroke-dasharray=""/></g><g><rect fill="#ffffff" stroke="none" x="332" y="354" width="194" height="152" transform="matrix(1 0 0 1 -30 -30)"/></g><g><path fill="none" stroke="#000000" paint-order="fill stroke markers" d=" M 302 324 L 496 324 L 496 476 L 302 476 L 302 324 Z Z" stroke-miterlimit="10" stroke-dasharray=""/></g><g><rect fill="#ffffff" stroke="none" x="64" y="540" width="462" height="140" transform="matrix(1 0 0 1 -30 -30)"/></g><g><path fill="none" stroke="#000000" paint-order="fill stroke markers" d=" M 34 510 L 496 510 L 496 650 L 34 650 L 34 510 Z Z" stroke-miterlimit="10" stroke-dasharray=""/></g><g><g><path fill="none" stroke="none"/><text fill="#000000" stroke="none" font-family="Arial" font-size="13px" font-style="normal" font-weight="normal" text-decoration="undefined" x="646" y="84.5" text-anchor="start" dominant-baseline="central" transform="matrix(1 0 0 1 -30 -30)">Checkout</text></g></g><g><g><path fill="none" stroke="none"/><text fill="#000000" stroke="none" font-family="Arial" font-size="13px" font-style="normal" font-weight="normal" text-decoration="undefined" x="646" y="124.5" text-anchor="start" dominant-baseline="central" transform="matrix(1 0 0 1 -30 -30)">Cart  →  Payment  →  Delivery</text></g></g><g><path fill="#ffffff" stroke="none" paint-order="stroke fill markers" d=" M 620 140 L 830 140 Q 834 140 834 144 L 834 168 Q 834 172 830 172 L 620 172 Q 616 172 616 168 L 616 144 Q 616 140 620 140 Z"/></g><g><path fill="none" stroke="#000000" paint-order="fill stroke markers" d=" M 620 140 L 830 140 Q 834 140 834 144 L 834 168 Q 834 172 830 172 L 620 172 Q 616 172 616 168 L 616 144 Q 616 140 620 140 Z" stroke-miterlimit="10" stroke-dasharray=""/></g><g><g><path fill="none" stroke="none"/><text fill="#000000" stroke="none" font-family="Arial" font-size="13px" font-style="normal" font-weight="normal" text-decoration="undefined" x="654" y="182.5" text-anchor="start" dominant-baseline="central" transform="matrix(1 0 0 1 -30 -30)">Email address</text></g></g><g><path fill="#ffffff" stroke="none" paint-order="stroke fill markers" d=" M 620 184 L 830 184 Q 834 184 834 188 L 834 212 Q 834 216 830 216 L 620 216 Q 616 216 616 212 L 616 188 Q 616 184 620 184 Z"/></g><g><path fill="none" stroke="#000000" paint-order="fill stroke markers" d=" M 620 184 L 830 184 Q 834 184 834 188 L 834 212 Q 834 216 830 216 L 620 216 Q 616 216 616 212 L 616 188 Q 616 184 620 184 Z" stroke-miterlimit="10" stroke-dasharray=""/></g><g><g><path fill="none" stroke="none"/><text fill="#000000" stroke="none" font-family="Arial" font-size="13px" font-style="normal" font-weight="normal" text-decoration="undefined" x="654" y="226.5" text-anchor="start" dominant-baseline="central" transform="matrix(1 0 0 1 -30 -30)">Full name</text></g></g><g><path fill="#ffffff" stroke="none" paint-order="stroke fill markers" d=" M 620 228 L 830 228 Q 834 228 834 232 L 834 256 Q 834 260 830 260 L 620 260 Q 616 260 616 256 L 616 232 Q 616 228 620 228 Z"/></g><g><path fill="none" stroke="#000000" paint-order="fill stroke markers" d=" M 620 228 L 830 228 Q 834 228 834 232 L 834 256 Q 834 260 830 260 L 620 260 Q 616 260 616 256 L 616 232 Q 616 228 620 228 Z" stroke-miterlimit="10" stroke-dasharray=""/></g><g><path fill="none" stroke="#000000" paint-order="fill stroke markers" d=" M 826 242 L 823 246" stroke-miterlimit="10" stroke-dasharray=""/></g><g><path fill="none" stroke="#000000" paint-order="fill stroke markers" d=" M 823 246 L 820 242" stroke-miterlimit="10" stroke-dasharray=""/></g><g><g><path fill="none" stroke="none"/><text fill="#000000" stroke="none" font-family="Arial" font-size="13px" font-style="normal" font-weight="normal" text-decoration="undefined" x="654" y="270.5" text-anchor="start" dominant-baseline="central" transform="matrix(1 0 0 1 -30 -30)">Country / VAT</text></g></g><g><rect fill="#ffffff" stroke="none" x="646" y="330" width="218" height="170" transform="matrix(1 0 0 1 -30 -30)"/></g><g><path fill="none" stroke="#000000" paint-order="fill stroke markers" d=" M 616 300 L 834 300 L 834 470 L 616 470 L 616 300 Z Z" stroke-miterlimit="10" stroke-dasharray=""/></g><g><path fill="none" stroke="#000000" paint-order="fill stroke markers" d=" M 619 499 L 627 499 Q 630 499 630 502 L 630 510 Q 630 513 627 513 L 619 513 Q 616 513 616 510 L 616 502 Q 616 499 619 499 Z" stroke-miterlimit="10" stroke-dasharray=""/></g><g><g><path fill="none" stroke="none"/><text fill="#000000" stroke="none" font-family="Arial" font-size="13px" font-style="normal" font-weight="normal" text-decoration="undefined" x="664" y="537.5" text-anchor="start" dominant-baseline="central" transform="matrix(1 0 0 1 -30 -30)">Email me product updates</text></g></g><g><path fill="#ffffff" stroke="none" paint-order="stroke fill markers" d=" M 620 546 L 736 546 Q 740 546 740 550 L 740 576 Q 740 580 736 580 L 620 580 Q 616 580 616 576 L 616 550 Q 616 546 620 546 Z"/></g><g><path fill="none" stroke="#000000" paint-order="fill stroke markers" d=" M 620 546 L 736 546 Q 740 546 740 550 L 740 576 Q 740 580 736 580 L 620 580 Q 616 580 616 576 L 616 550 Q 616 546 620 546 Z" stroke-miterlimit="10" stroke-dasharray=""/></g><g><g><path fill="none" stroke="none"/><text fill="#000000" stroke="none" font-family="Arial" font-size="13px" font-style="normal" font-weight="normal" text-decoration="undefined" x="708" y="594.5" text-anchor="middle" dominant-baseline="central" transform="matrix(1 0 0 1 -30 -30)">Pay now — $99</text></g></g><g><rect fill="#ffffff" stroke="none" x="900" y="170" width="214" height="160" transform="matrix(1 0 0 1 -30 -30)"/></g><g><path fill="none" stroke="#000000" paint-order="fill stroke markers" d=" M 870 140 L 1084 140 L 1084 300 L 870 300 L 870 140 Z Z" stroke-miterlimit="10" stroke-dasharray=""/></g><g><rect fill="#ffffff" stroke="none" x="900" y="358" width="214" height="142" transform="matrix(1 0 0 1 -30 -30)"/></g><g><path fill="none" stroke="#000000" paint-order="fill stroke markers" d=" M 870 328 L 1084 328 L 1084 470 L 870 470 L 870 328 Z Z" stroke-miterlimit="10" stroke-dasharray=""/></g><g><rect fill="#ffffff" stroke="none" x="900" y="528" width="214" height="122" transform="matrix(1 0 0 1 -30 -30)"/></g><g><path fill="none" stroke="#000000" paint-order="fill stroke markers" d=" M 870 498 L 1084 498 L 1084 620 L 870 620 L 870 498 Z Z" stroke-miterlimit="10" stroke-dasharray=""/></g><g><g><path fill="none" stroke="none"/><text fill="#000000" stroke="none" font-family="Arial" font-size="13px" font-style="normal" font-weight="normal" text-decoration="undefined" x="1226" y="84.5" text-anchor="start" dominant-baseline="central" transform="matrix(1 0 0 1 -30 -30)">Thank you — your order is ready</text></g></g><g><rect fill="#ffffff" stroke="none" x="1226" y="138" width="284" height="80" transform="matrix(1 0 0 1 -30 -30)"/></g><g><path fill="none" stroke="#000000" paint-order="fill stroke markers" d=" M 1196 108 L 1480 108 L 1480 188 L 1196 188 L 1196 108 Z Z" stroke-miterlimit="10" stroke-dasharray=""/></g><g><rect fill="#ffffff" stroke="none" x="1226" y="244" width="284" height="88" transform="matrix(1 0 0 1 -30 -30)"/></g><g><path fill="none" stroke="#000000" paint-order="fill stroke markers" d=" M 1196 214 L 1480 214 L 1480 302 L 1196 302 L 1196 214 Z Z" stroke-miterlimit="10" stroke-dasharray=""/></g><g><path fill="#ffffff" stroke="none" paint-order="stroke fill markers" d=" M 1200 332 L 1344 332 Q 1348 332 1348 336 L 1348 362 Q 1348 366 1344 366 L 1200 366 Q 1196 366 1196 362 L 1196 336 Q 1196 332 1200 332 Z"/></g><g><path fill="none" stroke="#000000" paint-order="fill stroke markers" d=" M 1200 332 L 1344 332 Q 1348 332 1348 336 L 1348 362 Q 1348 366 1344 366 L 1200 366 Q 1196 366 1196 362 L 1196 336 Q 1196 332 1200 332 Z" stroke-miterlimit="10" stroke-dasharray=""/></g><g><g><path fill="none" stroke="none"/><text fill="#000000" stroke="none" font-family="Arial" font-size="13px" font-style="normal" font-weight="normal" text-decoration="undefined" x="1302" y="380.5" text-anchor="middle" dominant-baseline="central" transform="matrix(1 0 0 1 -30 -30)">Download macOS build</text></g></g><g><path fill="#ffffff" stroke="none" paint-order="stroke fill markers" d=" M 1366 332 L 1476 332 Q 1480 332 1480 336 L 1480 362 Q 1480 366 1476 366 L 1366 366 Q 1362 366 1362 362 L 1362 336 Q 1362 332 1366 332 Z"/></g><g><path fill="none" stroke="#000000" paint-order="fill stroke markers" d=" M 1366 332 L 1476 332 Q 1480 332 1480 336 L 1480 362 Q 1480 366 1476 366 L 1366 366 Q 1362 366 1362 362 L 1362 336 Q 1362 332 1366 332 Z" stroke-miterlimit="10" stroke-dasharray=""/></g><g><g><path fill="none" stroke="none"/><text fill="#000000" stroke="none" font-family="Arial" font-size="13px" font-style="normal" font-weight="normal" text-decoration="undefined" x="1451" y="380.5" text-anchor="middle" dominant-baseline="central" transform="matrix(1 0 0 1 -30 -30)">Open my cabinet</text></g></g><g><rect fill="#ffffff" stroke="none" x="1226" y="430" width="284" height="130" transform="matrix(1 0 0 1 -30 -30)"/></g><g><path fill="none" stroke="#000000" paint-order="fill stroke markers" d=" M 1196 400 L 1480 400 L 1480 530 L 1196 530 L 1196 400 Z Z" stroke-miterlimit="10" stroke-dasharray=""/></g><g><rect fill="#ffffff" stroke="none" x="1226" y="590" width="284" height="120" transform="matrix(1 0 0 1 -30 -30)"/></g><g><path fill="none" stroke="#000000" paint-order="fill stroke markers" d=" M 1196 560 L 1480 560 L 1480 680 L 1196 680 L 1196 560 Z Z" stroke-miterlimit="10" stroke-dasharray=""/></g><g><g><path fill="none" stroke="none"/><text fill="#000000" stroke="none" font-family="Arial" font-size="13px" font-style="normal" font-weight="normal" text-decoration="undefined" x="64" y="924.5" text-anchor="start" dominant-baseline="central" transform="matrix(1 0 0 1 -30 -30)">My Downloads</text></g></g><g><g><path fill="none" stroke="none"/><text fill="#2b71ff" stroke="none" font-family="Arial" font-size="13px" font-style="normal" font-weight="normal" text-decoration="undefined" x="64" y="964.5" text-anchor="start" dominant-baseline="central" transform="matrix(1 0 0 1 -30 -30)">Downloads</text><path fill="none" stroke="#2b71ff" paint-order="fill stroke markers" d=" M 34 941 L 98.314453125 941" stroke-miterlimit="10" stroke-dasharray=""/></g></g><g><g><path fill="none" stroke="none"/><text fill="#2b71ff" stroke="none" font-family="Arial" font-size="13px" font-style="normal" font-weight="normal" text-decoration="undefined" x="154" y="964.5" text-anchor="start" dominant-baseline="central" transform="matrix(1 0 0 1 -30 -30)">Licenses</text><path fill="none" stroke="#2b71ff" paint-order="fill stroke markers" d=" M 124 941 L 175.30810546875 941" stroke-miterlimit="10" stroke-dasharray=""/></g></g><g><g><path fill="none" stroke="none"/><text fill="#2b71ff" stroke="none" font-family="Arial" font-size="13px" font-style="normal" font-weight="normal" text-decoration="undefined" x="232" y="964.5" text-anchor="start" dominant-baseline="central" transform="matrix(1 0 0 1 -30 -30)">Orders</text><path fill="none" stroke="#2b71ff" paint-order="fill stroke markers" d=" M 202 941 L 241.72998046875 941" stroke-miterlimit="10" stroke-dasharray=""/></g></g><g><path fill="#ffffff" stroke="none" paint-order="stroke fill markers" d=" M 38 980 L 254 980 Q 258 980 258 984 L 258 1006 Q 258 1010 254 1010 L 38 1010 Q 34 1010 34 1006 L 34 984 Q 34 980 38 980 Z"/></g><g><path fill="none" stroke="#000000" paint-order="fill stroke markers" d=" M 38 980 L 254 980 Q 258 980 258 984 L 258 1006 Q 258 1010 254 1010 L 38 1010 Q 34 1010 34 1006 L 34 984 Q 34 980 38 980 Z" stroke-miterlimit="10" stroke-dasharray=""/></g><g><g><path fill="none" stroke="none"/><text fill="#000000" stroke="none" font-family="Arial" font-size="13px" font-style="normal" font-weight="normal" text-decoration="undefined" x="72" y="1022.5" text-anchor="start" dominant-baseline="central" transform="matrix(1 0 0 1 -30 -30)">Search downloads / product</text></g></g><g><rect fill="#ffffff" stroke="none" x="64" y="1070" width="224" height="388" transform="matrix(1 0 0 1 -30 -30)"/></g><g><path fill="none" stroke="#000000" paint-order="fill stroke markers" d=" M 34 1040 L 258 1040 L 258 1428 L 34 1428 L 34 1040 Z Z" stroke-miterlimit="10" stroke-dasharray=""/></g><g><rect fill="#ffffff" stroke="none" x="314" y="1010" width="222" height="148" transform="matrix(1 0 0 1 -30 -30)"/></g><g><path fill="none" stroke="#000000" paint-order="fill stroke markers" d=" M 284 980 L 506 980 L 506 1128 L 284 1128 L 284 980 Z Z" stroke-miterlimit="10" stroke-dasharray=""/></g><g><rect fill="#ffffff" stroke="none" x="314" y="1186" width="222" height="140" transform="matrix(1 0 0 1 -30 -30)"/></g><g><path fill="none" stroke="#000000" paint-order="fill stroke markers" d=" M 284 1156 L 506 1156 L 506 1296 L 284 1296 L 284 1156 Z Z" stroke-miterlimit="10" stroke-dasharray=""/></g><g><rect fill="#ffffff" stroke="none" x="314" y="1354" width="222" height="104" transform="matrix(1 0 0 1 -30 -30)"/></g><g><path fill="none" stroke="#000000" paint-order="fill stroke markers" d=" M 284 1324 L 506 1324 L 506 1428 L 284 1428 L 284 1324 Z Z" stroke-miterlimit="10" stroke-dasharray=""/></g><g><g><path fill="none" stroke="none"/><text fill="#000000" stroke="none" font-family="Arial" font-size="13px" font-style="normal" font-weight="normal" text-decoration="undefined" x="646" y="924.5" text-anchor="start" dominant-baseline="central" transform="matrix(1 0 0 1 -30 -30)">Orders &amp; Help</text></g></g><g><rect fill="#ffffff" stroke="none" x="646" y="980" width="216" height="478" transform="matrix(1 0 0 1 -30 -30)"/></g><g><path fill="none" stroke="#000000" paint-order="fill stroke markers" d=" M 616 950 L 832 950 L 832 1428 L 616 1428 L 616 950 Z Z" stroke-miterlimit="10" stroke-dasharray=""/></g><g><rect fill="#ffffff" stroke="none" x="888" y="980" width="226" height="208" transform="matrix(1 0 0 1 -30 -30)"/></g><g><path fill="none" stroke="#000000" paint-order="fill stroke markers" d=" M 858 950 L 1084 950 L 1084 1158 L 858 1158 L 858 950 Z Z" stroke-miterlimit="10" stroke-dasharray=""/></g><g><rect fill="#ffffff" stroke="none" x="888" y="1340" width="226" height="118" transform="matrix(1 0 0 1 -30 -30)"/></g><g><path fill="none" stroke="#000000" paint-order="fill stroke markers" d=" M 858 1310 L 1084 1310 L 1084 1428 L 858 1428 L 858 1310 Z Z" stroke-miterlimit="10" stroke-dasharray=""/></g><g><rect fill="#ffffff" stroke="none" x="64" y="706" width="222" height="74" transform="matrix(1 0 0 1 -30 -30)"/></g><g><path fill="none" stroke="#000000" paint-order="fill stroke markers" d=" M 34 676 L 256 676 L 256 750 L 34 750 L 34 676 Z Z" stroke-miterlimit="10" stroke-dasharray=""/></g><g><path fill="#ffffff" stroke="none" paint-order="stroke fill markers" d=" M 1200 694 L 1376 694 Q 1380 694 1380 698 L 1380 754 Q 1380 758 1376 758 L 1200 758 Q 1196 758 1196 754 L 1196 698 Q 1196 694 1200 694 Z"/></g><g><path fill="none" stroke="#000000" paint-order="fill stroke markers" d=" M 1200 694 L 1376 694 Q 1380 694 1380 698 L 1380 754 Q 1380 758 1376 758 L 1200 758 Q 1196 758 1196 754 L 1196 698 Q 1196 694 1200 694 Z" stroke-miterlimit="10" stroke-dasharray=""/></g><g><g><path fill="none" stroke="none"/><text fill="#000000" stroke="none" font-family="Arial" font-size="13px" font-style="normal" font-weight="normal" text-decoration="undefined" x="1318" y="757.5" text-anchor="middle" dominant-baseline="central" transform="matrix(1 0 0 1 -30 -30)">Download sample pack ZIP</text></g></g><g><rect fill="#ffffff" stroke="none" x="302" y="706" width="224" height="74" transform="matrix(1 0 0 1 -30 -30)"/></g><g><path fill="none" stroke="#000000" paint-order="fill stroke markers" d=" M 272 676 L 496 676 L 496 750 L 272 750 L 272 676 Z Z" stroke-miterlimit="10" stroke-dasharray=""/></g><g><rect fill="#ffffff" stroke="none" x="314" y="1478" width="222" height="86" transform="matrix(1 0 0 1 -30 -30)"/></g><g><path fill="none" stroke="#000000" paint-order="fill stroke markers" d=" M 284 1448 L 506 1448 L 506 1534 L 284 1534 L 284 1448 Z Z" stroke-miterlimit="10" stroke-dasharray=""/></g><g><rect fill="#ffffff" stroke="none" x="888" y="1216" width="226" height="104" transform="matrix(1 0 0 1 -30 -30)"/></g><g><path fill="none" stroke="#000000" paint-order="fill stroke markers" d=" M 858 1186 L 1084 1186 L 1084 1290 L 858 1290 L 858 1186 Z Z" stroke-miterlimit="10" stroke-dasharray=""/></g></g></svg>