<svg version="1.1" xmlns="http://www.w3.org/2000/svg" xmlns:xlink="http://www.w3.org/1999/xlink" width="1700" height="1640"><defs/><g><g><path fill="#ffffff" stroke="none" paint-order="stroke fill markers" d=" M 14 10 L 526 10 Q 530 10 530 14 L 530 786 Q 530 790 526 790 L 14 790 Q 10 790 10 786 L 10 14 Q 10 10 14 10 Z"/></g><g><path fill="none" stroke="#000000" paint-order="fill stroke markers" d=" M 14 10 L 526 10 Q 530 10 530 14 L 530 786 Q 530 790 526 790 L 14 790 Q 10 790 10 786 L 10 14 Q 10 10 14 10 Z" stroke-miterlimit="10" stroke-dasharray=""/></g><g><path fill="none" stroke="#000000" paint-order="fill stroke markers" d=" M 10 30 L 530 30" stroke-miterlimit="10" stroke-dasharray=""/></g><g><path fill="none" stroke="#000000" paint-order="fill stroke markers" d=" M 514 20 C 514 16.6862912 516.6862912 14 520 14 C 523.3137088 14 526 16.6862912 526 20 C 526 23.3137088 523.3137088 26 520 26 C 516.6862912 26 514 23.3137088 514 20 Z" stroke-miterlimit="10" stroke-dasharray=""/></g><g><path fill="none" stroke="#000000" paint-order="fill stroke markers" d=" M 498 20 C 498 16.6862912 500.6862912 14 504 14 C 507.3137088 14 510 16.6862912 510 20 C 510 23.3137088 507.3137088 26 504 26 C 500.6862912 26 498 23.3137088 498 20 Z" stroke-miterlimit="10" stroke-dasharray=""/></g><g><path fill="none" stroke="#000000" paint-order="fill stroke markers" d=" M 20 14 L 486 14 Q 492 14 492 20 L 492 20 Q 492 26 486 26 L 20 26 Q 14 26 14 20 L 14 20 Q 14 14 20 14 Z" stroke-miterlimit="10" stroke-dasharray=""/></g><g><path fill="#ffffff" stroke="none" paint-order="stroke fill markers" d=" M 594 10 L 1106 10 Q 1110 10 1110 14 L 1110 786 Q 1110 790 1106 790 L 594 790 Q 590 790 590 786 L 590 14 Q 590 10 594 10 Z"/></g><g><path fill="none" stroke="#000000" paint-order="fill stroke markers" d=" M 594 10 L 1106 10 Q 1110 10 1110 14 L 1110 786 Q 1110 790 1106 790 L 594 790 Q 590 790 590 786 L 590 14 Q 590 10 594 10 Z" stroke-miterlimit="10" stroke-dasharray=""/></g><g><path fill="none" stroke="#000000" paint-order="fill stroke markers" d=" M 590 30 L 1110 30" stroke-miterlimit="10" stroke-dasharray=""/></g><g><path fill="none" stroke="#000000" paint-order="fill stroke markers" d=" M 1094 20 C 1094 16.6862912 1096.6862912 14 1100 14 C 1103.3137088 14 1106 16.6862912 1106 20 C 1106 23.3137088 1103.3137088 26 1100 26 C 1096.6862912 26 1094 23.3137088 1094 20 Z" stroke-miterlimit="10" stroke-dasharray=""/></g><g><path fill="none" stroke="#000000" paint-order="fill stroke markers" d=" M 1078 20 C 1078 16.6862912 1080.6862912 14 1084 14 C 1087.3137088 14 1090 16.6862912 1090 20 C 1090 23.3137088 1087.3137088 26 1084 26 C 1080.6862912 26 1078 23.3137088 1078 20 Z" stroke-miterlimit="10" stroke-dasharray=""/></g><g><path fill="none" stroke="#000000" paint-order="fill stroke markers" d=" M 600 14 L 1066 14 Q 1072 14 1072 20 L 1072 20 Q 1072 26 1066 26 L 600 26 Q 594 26 594 20 L 594 20 Q 594 14 600 14 Z" stroke-miterlimit="10" stroke-dasharray=""/></g><g><path fill="#ffffff" stroke="none" paint-order="stroke fill markers" d=" M 1174 10 L 1686 10 Q 1690 10 1690 14 L 1690 786 Q 1690 790 1686 790 L 1174 790 Q 1170 790 1170 786 L 1170 14 Q 1170 10 1174 10 Z"/></g><g><path fill="none" stroke="#000000" paint-order="fill stroke markers" d=" M 1174 10 L 1686 10 Q 1690 10 1690 14 L 1690 786 Q 1690 790 1686 790 L 1174 790 Q 1170 790 1170 786 L 1170 14 Q 1170 10 1174 10 Z" stroke-miterlimit="10" stroke-dasharray=""/></g><g><path fill="none" stroke="#000000" paint-order="fill stroke markers" d=" M 1170 30 L 1690 30" stroke-miterlimit="10" stroke-dasharray=""/></g><g><path fill="none" stroke="#000000" paint-order="fill stroke markers" d=" M 1674 20 C 1674 16.6862912 1676.6862912 14 1680 14 C 1683.3137088 14 1686 16.6862912 1686 20 C 1686 23.3137088 1683.3137088 26 1680 26 C 1676.6862912 26 1674 23.3137088 1674 20 Z" stroke-miterlimit="10" stroke-dasharray=""/></g><g><path fill="none" stroke="#000000" paint-order="fill stroke markers" d=" M 1658 20 C 1658 16.6862912 1660.6862912 14 1664 14 C 1667.3137088 14 1670 16.6862912 1670 20 C 1670 23.3137088 1667.3137088 26 1664 26 C 1660.6862912 26 1658 23.3137088 1658 20 Z" stroke-miterlimit="10" stroke-dasharray=""/></g><g><path fill="none" stroke="#000000" paint-order="fill stroke markers" d=" M 1180 14 L 1646 14 Q 1652 14 1652 20 L 1652 20 Q 1652 26 1646 26 L 1180 26 Q 1174 26 1174 20 L 1174 20 Q 1174 14 1180 14 Z" stroke-miterlimit="10" stroke-dasharray=""/></g><g><path fill="#ffffff" stroke="none" paint-order="stroke fill markers" d=" M 14 850 L 526 850 Q 530 850 530 854 L 530 1626 Q 530 1630 526 1630 L 14 1630 Q 10 1630 10 1626 L 10 854 Q 10 850 14 850 Z"/></g><g><path fill="none" stroke="#000000" paint-order="fill stroke markers" d=" M 14 850 L 526 850 Q 530 850 530 854 L 530 1626 Q 530 1630 526 1630 L 14 1630 Q 10 1630 10 1626 L 10 854 Q 10 850 14 850 Z" stroke-miterlimit="10" stroke-dasharray=""/></g><g><path fill="none" stroke="#000000" paint-order="fill stroke markers" d=" M 10 870 L 530 870" stroke-miterlimit="10" stroke-dasharray=""/></g><g><path fill="none" stroke="#000000" paint-order="fill stroke markers" d=" M 514 860 C 514 856.6862912 516.6862912 854 520 854 C 523.3137088 854 526 856.6862912 526 860 C 526 863.3137088 523.3137088 866 520 866 C 516.6862912 866 514 863.3137088 514 860 Z" stroke-miterlimit="10" stroke-dasharray=""/></g><g><path fill="none" stroke="#000000" paint-order="fill stroke markers" d=" M 498 860 C 498 856.6862912 500.6862912 854 504 854 C 507.3137088 854 510 856.6862912 510 860 C 510 863.3137088 507.3137088 866 504 866 C 500.6862912 866 498 863.3137088 498 860 Z" stroke-miterlimit="10" stroke-dasharray=""/></g><g><path fill="none" stroke="#000000" paint-order="fill stroke markers" d=" M 20 854 L 486 854 Q 492 854 492 860 L 492 860 Q 492 866 486 866 L 20 866 Q 14 866 14 860 L 14 860 Q 14 854 20 854 Z" stroke-miterlimit="10" stroke-dasharray=""/></g><g><path fill="#ffffff" stroke="none" paint-order="stroke fill markers" d=" M 594 850 L 1106 850 Q 1110 850 1110 854 L 1110 1626 Q 1110 1630 1106 1630 L 594 1630 Q 590 1630 590 1626 L 590 854 Q 590 850 594 850 Z"/></g><g><path fill="none" stroke="#000000" paint-order="fill stroke markers" d=" M 594 850 L 1106 850 Q 1110 850 1110 854 L 1110 1626 Q 1110 1630 1106 1630 L 594 1630 Q 590 1630 590 1626 L 590 854 Q 590 850 594 850 Z" stroke-miterlimit="10" stroke-dasharray=""/></g><g><path fill="none" stroke="#000000" paint-order="fill stroke markers" d=" M 590 870 L 1110 870" stroke-miterlimit="10" stroke-dasharray=""/></g><g><path fill="none" stroke="#000000" paint-order="fill stroke markers" d=" M 1094 860 C 1094 856.6862912 1096.6862912 854 1100 854 C 1103.3137088 854 1106 856.6862912 1106 860 C 1106 863.3137088 1103.3137088 866 1100 866 C 1096.6862912 866 1094 863.3137088 1094 860 Z" stroke-miterlimit="10" stroke-dasharray=""/></g><g><path fill="none" stroke="#000000" paint-order="fill stroke markers" d=" M 1078 860 C 1078 856.6862912 1080.6862912 854 1084 854 C 1087.3137088 854 1090 856.6862912 1090 860 C 1090 863.3137088 1087.3137088 866 1084 866 C 1080.6862912 866 1078 863.3137088 1078 860 Z" stroke-miterlimit="10" stroke-dasharray=""/></g><g><path fill="none" stroke="#000000" paint-order="fill stroke markers" d=" M 600 854 L 1066 854 Q 1072 854 1072 860 L 1072 860 Q 1072 866 1066 866 L 600 866 Q 594 866 594 860 L 594 860 Q 594 854 600 854 Z" stroke-miterlimit="10" stroke-dasharray=""/></g><g><g><path fill="none" stroke="none"/><text fill="#000000" stroke="none" font-family="Arial" font-size="13px" font-style="normal" font-weight="normal" text-decoration="undefined" x="64" y="84.5" text-anchor="start" dominant-baseline="central" transform="matrix(1 0 0 1 -30 -30)">Sign in to your cabinet</text></g></g><g><rect fill="#ffffff" stroke="none" x="64" y="126" width="462" height="60" transform="matrix(1 0 0 1 -30 -30)"/></g><g><path fill="none" stroke="#000000" paint-order="fill stroke markers" d=" M 34 96 L 496 96 L 496 156 L 34 156 L 34 96 Z Z" stroke-miterlimit="10" stroke-dasharray=""/></g><g><path fill="#ffffff" stroke="none" paint-order="stroke fill markers" d=" M 38 194 L 270 194 Q 274 194 274 198 L 274 222 Q 274 226 270 226 L 38 226 Q 34 226 34 222 L 34 198 Q 34 194 38 194 Z"/></g><g><path fill="none" stroke="#000000" paint-order="fill stroke markers" d=" M 38 194 L 270 194 Q 274 194 274 198 L 274 222 Q 274 226 270 226 L 38 226 Q 34 226 34 222 L 34 198 Q 34 194 38 194 Z" stroke-miterlimit="10" stroke-dasharray=""/></g><g><g><path fill="none" stroke="none"/><text fill="#000000" stroke="none" font-family="Arial" font-size="13px" font-style="normal" font-weight="normal" text-decoration="undefined" x="72" y="236.5" text-anchor="start" dominant-baseline="central" transform="matrix(1 0 0 1 -30 -30)">Email address</text></g></g><g><path fill="#ffffff" stroke="none" paint-order="stroke fill markers" d=" M 38 246 L 158 246 Q 162 246 162 250 L 162 276 Q 162 280 158 280 L 38 280 Q 34 280 34 276 L 34 250 Q 34 246 38 246 Z"/></g><g><path fill="none" stroke="#000000" paint-order="fill stroke markers" d=" M 38 246 L 158 246 Q 162 246 162 250 L 162 276 Q 162 280 158 280 L 38 280 Q 34 280 34 276 L 34 250 Q 34 246 38 246 Z" stroke-miterlimit="10" stroke-dasharray=""/></g><g><g><path fill="none" stroke="none"/><text fill="#000000" stroke="none" font-family="Arial" font-size="13px" font-style="normal" font-weight="normal" text-decoration="undefined" x="128" y="294.5" text-anchor="middle" dominant-baseline="central" transform="matrix(1 0 0 1 -30 -30)">Send magic link</text></g></g><g><g><path fill="none" stroke="none"/><text fill="#2b71ff" stroke="none" font-family="Arial" font-size="13px" font-style="normal" font-weight="normal" text-decoration="undefined" x="212" y="288.5" text-anchor="start" dominant-baseline="central" transform="matrix(1 0 0 1 -30 -30)">Use password instead</text><path fill="none" stroke="#2b71ff" paint-order="fill stroke markers" d=" M 182 265 L 309.89892578125 265" stroke-miterlimit="10" stroke-dasharray=""/></g></g><g><rect fill="#ffffff" stroke="none" x="64" y="354" width="240" height="140" transform="matrix(1 0 0 1 -30 -30)"/></g><g><path fill="none" stroke="#000000" paint-order="fill stroke markers" d=" M 34 324 L 274 324 L 274 464 L 34 464 L 34 324 Z Z" stroke-miterlimit="10" stroke-dasharray=""/></g><g><rect fill="#ffffff" stroke="none" x="330" y="224" width="196" height="270" transform="matrix(1 0 0 1 -30 -30)"/></g><g><path fill="none" stroke="#000000" paint-order="fill stroke markers" d=" M 300 194 L 496 194 L 496 464 L 300 464 L 300 194 Z Z" stroke-miterlimit="10" stroke-dasharray=""/></g><g><g><path fill="none" stroke="none"/><text fill="#000000" stroke="none" font-family="Arial" font-size="13px" font-style="normal" font-weight="normal" text-decoration="undefined" x="646" y="84.5" text-anchor="start" dominant-baseline="central" transform="matrix(1 0 0 1 -30 -30)">Starter Drums Pack</text></g></g><g><rect fill="#ffffff" stroke="none" x="646" y="126" width="262" height="64" transform="matrix(1 0 0 1 -30 -30)"/></g><g><path fill="none" stroke="#000000" paint-order="fill stroke markers" d=" M 616 96 L 878 96 L 878 160 L 616 160 L 616 96 Z Z" stroke-miterlimit="10" stroke-dasharray=""/></g><g><path fill="#ffffff" stroke="none" paint-order="stroke fill markers" d=" M 620 184 L 758 184 Q 762 184 762 188 L 762 214 Q 762 218 758 218 L 620 218 Q 616 218 616 214 L 616 188 Q 616 184 620 184 Z"/></g><g><path fill="none" stroke="#000000" paint-order="fill stroke markers" d=" M 620 184 L 758 184 Q 762 184 762 188 L 762 214 Q 762 218 758 218 L 620 218 Q 616 218 616 214 L 616 188 Q 616 184 620 184 Z" stroke-miterlimit="10" stroke-dasharray=""/></g><g><g><path fill="none" stroke="none"/><text fill="#000000" stroke="none" font-family="Arial" font-size="13px" font-style="normal" font-weight="normal" text-decoration="undefined" x="719" y="232.5" text-anchor="middle" dominant-baseline="central" transform="matrix(1 0 0 1 -30 -30)">Buy sample pack — $29</text></g></g><g><rect fill="#ffffff" stroke="none" x="938" y="126" width="176" height="160" transform="matrix(1 0 0 1 -30 -30)"/></g><g><path fill="none" stroke="#000000" paint-order="fill stroke markers" d=" M 908 96 L 1084 96 L 1084 256 L 908 256 L 908 96 Z Z" stroke-miterlimit="10" stroke-dasharray=""/></g><g><path fill="none" stroke="#000000" paint-order="fill stroke markers" d=" M 908 96 L 1084 256" stroke-miterlimit="10" stroke-dasharray=""/></g><g><path fill="none" stroke="#000000" paint-order="fill stroke markers" d=" M 1084 96 L 908 256" stroke-miterlimit="10" stroke-dasharray=""/></g><g><rect fill="#ffffff" stroke="none" x="646" y="294" width="214" height="126" transform="matrix(1 0 0 1 -30 -30)"/></g><g><path fill="none" stroke="#000000" paint-order="fill stroke markers" d=" M 616 264 L 830 264 L 830 390 L 616 390 L 616 264 Z Z" stroke-miterlimit="10" stroke-dasharray=""/></g><g><rect fill="#ffffff" stroke="none" x="884" y="294" width="230" height="126" transform="matrix(1 0 0 1 -30 -30)"/></g><g><path fill="none" stroke="#000000" paint-order="fill stroke markers" d=" M 854 264 L 1084 264 L 1084 390 L 854 390 L 854 264 Z Z" stroke-miterlimit="10" stroke-dasharray=""/></g><g><g><path fill="none" stroke="none"/><text fill="#000000" stroke="none" font-family="Arial" font-size="13px" font-style="normal" font-weight="normal" text-decoration="undefined" x="1226" y="84.5" text-anchor="start" dominant-baseline="central" transform="matrix(1 0 0 1 -30 -30)">Activate your plugin</text></g></g><g><rect fill="#ffffff" stroke="none" x="1226" y="136" width="184" height="100" transform="matrix(1 0 0 1 -30 -30)"/></g><g><path fill="none" stroke="#000000" paint-order="fill stroke markers" d=" M 1196 106 L 1380 106 L 1380 206 L 1196 206 L 1196 106 Z Z" stroke-miterlimit="10" stroke-dasharray=""/></g><g><rect fill="#ffffff" stroke="none" x="1430" y="136" width="238" height="100" transform="matrix(1 0 0 1 -30 -30)"/></g><g><path fill="none" stroke="#000000" paint-order="fill stroke markers" d=" M 1400 106 L 1638 106 L 1638 206 L 1400 206 L 1400 106 Z Z" stroke-miterlimit="10" stroke-dasharray=""/></g><g><rect fill="#ffffff" stroke="none" x="1226" y="260" width="442" height="100" transform="matrix(1 0 0 1 -30 -30)"/></g><g><path fill="none" stroke="#000000" paint-order="fill stroke markers" d=" M 1196 230 L 1638 230 L 1638 330 L 1196 330 L 1196 230 Z Z" stroke-miterlimit="10" stroke-dasharray=""/></g><g><rect fill="#ffffff" stroke="none" x="1226" y="392" width="224" height="148" transform="matrix(1 0 0 1 -30 -30)"/></g><g><path fill="none" stroke="#000000" paint-order="fill stroke markers" d=" M 1196 362 L 1420 362 L 1420 510 L 1196 510 L 1196 362 Z Z" stroke-miterlimit="10" stroke-dasharray=""/></g><g><path fill="#ffffff" stroke="none" paint-order="stroke fill markers" d=" M 1440 402 L 1584 402 Q 1588 402 1588 406 L 1588 432 Q 1588 436 1584 436 L 1440 436 Q 1436 436 1436 432 L 1436 406 Q 1436 402 1440 402 Z"/></g><g><path fill="none" stroke="#000000" paint-order="fill stroke markers" d=" M 1440 402 L 1584 402 Q 1588 402 1588 406 L 1588 432 Q 1588 436 1584 436 L 1440 436 Q 1436 436 1436 432 L 1436 406 Q 1436 402 1440 402 Z" stroke-miterlimit="10" stroke-dasharray=""/></g><g><g><path fill="none" stroke="none"/><text fill="#000000" stroke="none" font-family="Arial" font-size="13px" font-style="normal" font-weight="normal" text-decoration="undefined" x="1542" y="450.5" text-anchor="middle" dominant-baseline="central" transform="matrix(1 0 0 1 -30 -30)">Open support article</text></g></g><g><path fill="#ffffff" stroke="none" paint-order="stroke fill markers" d=" M 1440 456 L 1560 456 Q 1564 456 1564 460 L 1564 486 Q 1564 490 1560 490 L 1440 490 Q 1436 490 1436 486 L 1436 460 Q 1436 456 1440 456 Z"/></g><g><path fill="none" stroke="#000000" paint-order="fill stroke markers" d=" M 1440 456 L 1560 456 Q 1564 456 1564 460 L 1564 486 Q 1564 490 1560 490 L 1440 490 Q 1436 490 1436 486 L 1436 460 Q 1436 456 1440 456 Z" stroke-miterlimit="10" stroke-dasharray=""/></g><g><g><path fill="none" stroke="none"/><text fill="#000000" stroke="none" font-family="Arial" font-size="13px" font-style="normal" font-weight="normal" text-decoration="undefined" x="1530" y="504.5" text-anchor="middle" dominant-baseline="central" transform="matrix(1 0 0 1 -30 -30)">Copy license key</text></g></g><g><g><path fill="none" stroke="none"/><text fill="#000000" stroke="none" font-family="Arial" font-size="13px" font-style="normal" font-weight="normal" text-decoration="undefined" x="64" y="924.5" text-anchor="start" dominant-baseline="central" transform="matrix(1 0 0 1 -30 -30)">License Detail</text></g></g><g><rect fill="#ffffff" stroke="none" x="64" y="972" width="232" height="142" transform="matrix(1 0 0 1 -30 -30)"/></g><g><path fill="none" stroke="#000000" paint-order="fill stroke markers" d=" M 34 942 L 266 942 L 266 1084 L 34 1084 L 34 942 Z Z" stroke-miterlimit="10" stroke-dasharray=""/></g><g><rect fill="#ffffff" stroke="none" x="320" y="972" width="216" height="142" transform="matrix(1 0 0 1 -30 -30)"/></g><g><path fill="none" stroke="#000000" paint-order="fill stroke markers" d=" M 290 942 L 506 942 L 506 1084 L 290 1084 L 290 942 Z Z" stroke-miterlimit="10" stroke-dasharray=""/></g><g><rect fill="#ffffff" stroke="none" x="64" y="1144" width="232" height="144" transform="matrix(1 0 0 1 -30 -30)"/></g><g><path fill="none" stroke="#000000" paint-order="fill stroke markers" d=" M 34 1114 L 266 1114 L 266 1258 L 34 1258 L 34 1114 Z Z" stroke-miterlimit="10" stroke-dasharray=""/></g><g><rect fill="#ffffff" stroke="none" x="320" y="1144" width="216" height="144" transform="matrix(1 0 0 1 -30 -30)"/></g><g><path fill="none" stroke="#000000" paint-order="fill stroke markers" d=" M 290 1114 L 506 1114 L 506 1258 L 290 1258 L 290 1114 Z Z" stroke-miterlimit="10" stroke-dasharray=""/></g><g><g><path fill="none" stroke="none"/><text fill="#000000" stroke="none" font-family="Arial" font-size="13px" font-style="normal" font-weight="normal" text-decoration="undefined" x="646" y="924.5" text-anchor="start" dominant-baseline="central" transform="matrix(1 0 0 1 -30 -30)">Support &amp; Recovery</text></g></g><g><rect fill="#ffffff" stroke="none" x="646" y="972" width="218" height="142" transform="matrix(1 0 0 1 -30 -30)"/></g><g><path fill="none" stroke="#000000" paint-order="fill stroke markers" d=" M 616 942 L 834 942 L 834 1084 L 616 1084 L 616 942 Z Z" stroke-miterlimit="10" stroke-dasharray=""/></g><g><rect fill="#ffffff" stroke="none" x="888" y="972" width="226" height="142" transform="matrix(1 0 0 1 -30 -30)"/></g><g><path fill="none" stroke="#000000" paint-order="fill stroke markers" d=" M 858 942 L 1084 942 L 1084 1084 L 858 1084 L 858 942 Z Z" stroke-miterlimit="10" stroke-dasharray=""/></g><g><rect fill="#ffffff" stroke="none" x="646" y="1140" width="218" height="162" transform="matrix(1 0 0 1 -30 -30)"/></g><g><path fill="none" stroke="#000000" paint-order="fill stroke markers" d=" M 616 1110 L 834 1110 L 834 1272 L 616 1272 L 616 1110 Z Z" stroke-miterlimit="10" stroke-dasharray=""/></g><g><rect fill="#ffffff" stroke="none" x="888" y="1140" width="226" height="162" transform="matrix(1 0 0 1 -30 -30)"/></g><g><path fill="none" stroke="#000000" paint-order="fill stroke markers" d=" M 858 1110 L 1084 1110 L 1084 1272 L 858 1272 L 858 1110 Z Z" stroke-miterlimit="10" stroke-dasharray=""/></g></g></svg>