<svg version="1.1" xmlns="http://www.w3.org/2000/svg" xmlns:xlink="http://www.w3.org/1999/xlink" width="1120" height="1560"><defs/><g><g><path fill="#ffffff" stroke="none" paint-order="stroke fill markers" d=" M 14 10 L 526 10 Q 530 10 530 14 L 530 746 Q 530 750 526 750 L 14 750 Q 10 750 10 746 L 10 14 Q 10 10 14 10 Z"/></g><g><path fill="none" stroke="#000000" paint-order="fill stroke markers" d=" M 14 10 L 526 10 Q 530 10 530 14 L 530 746 Q 530 750 526 750 L 14 750 Q 10 750 10 746 L 10 14 Q 10 10 14 10 Z" stroke-miterlimit="10" stroke-dasharray=""/></g><g><path fill="none" stroke="#000000" paint-order="fill stroke markers" d=" M 10 30 L 530 30" stroke-miterlimit="10" stroke-dasharray=""/></g><g><path fill="none" stroke="#000000" paint-order="fill stroke markers" d=" M 514 14 L 526 14 L 526 26 L 514 26 L 514 14 Z Z" stroke-miterlimit="10" stroke-dasharray=""/></g><g><path fill="none" stroke="#000000" paint-order="fill stroke markers" d=" M 514 14 L 526 26" stroke-miterlimit="10" stroke-dasharray=""/></g><g><path fill="none" stroke="#000000" paint-order="fill stroke markers" d=" M 526 14 L 514 26" stroke-miterlimit="10" stroke-dasharray=""/></g><g><path fill="#ffffff" stroke="none" paint-order="stroke fill markers" d=" M 594 10 L 1106 10 Q 1110 10 1110 14 L 1110 746 Q 1110 750 1106 750 L 594 750 Q 590 750 590 746 L 590 14 Q 590 10 594 10 Z"/></g><g><path fill="none" stroke="#000000" paint-order="fill stroke markers" d=" M 594 10 L 1106 10 Q 1110 10 1110 14 L 1110 746 Q 1110 750 1106 750 L 594 750 Q 590 750 590 746 L 590 14 Q 590 10 594 10 Z" stroke-miterlimit="10" stroke-dasharray=""/></g><g><path fill="none" stroke="#000000" paint-order="fill stroke markers" d=" M 590 30 L 1110 30" stroke-miterlimit="10" stroke-dasharray=""/></g><g><path fill="none" stroke="#000000" paint-order="fill stroke markers" d=" M 1094 20 C 1094 16.6862912 1096.6862912 14 1100 14 C 1103.3137088 14 1106 16.6862912 1106 20 C 1106 23.3137088 1103.3137088 26 1100 26 C 1096.6862912 26 1094 23.3137088 1094 20 Z" stroke-miterlimit="10" stroke-dasharray=""/></g><g><path fill="none" stroke="#000000" paint-order="fill stroke markers" d=" M 1078 20 C 1078 16.6862912 1080.6862912 14 1084 14 C 1087.3137088 14 1090 16.6862912 1090 20 C 1090 23.3137088 1087.3137088 26 1084 26 C 1080.6862912 26 1078 23.3137088 1078 20 Z" stroke-miterlimit="10" stroke-dasharray=""/></g><g><path fill="none" stroke="#000000" paint-order="fill stroke markers" d=" M 600 14 L 1066 14 Q 1072 14 1072 20 L 1072 20 Q 1072 26 1066 26 L 600 26 Q 594 26 594 20 L 594 20 Q 594 14 600 14 Z" stroke-miterlimit="10" stroke-dasharray=""/></g><g><path fill="#ffffff" stroke="none" paint-order="stroke fill markers" d=" M 14 810 L 526 810 Q 530 810 530 814 L 530 1546 Q 530 1550 526 1550 L 14 1550 Q 10 1550 10 1546 L 10 814 Q 10 810 14 810 Z"/></g><g><path fill="none" stroke="#000000" paint-order="fill stroke markers" d=" M 14 810 L 526 810 Q 530 810 530 814 L 530 1546 Q 530 1550 526 1550 L 14 1550 Q 10 1550 10 1546 L 10 814 Q 10 810 14 810 Z" stroke-miterlimit="10" stroke-dasharray=""/></g><g><path fill="none" stroke="#000000" paint-order="fill stroke markers" d=" M 10 830 L 530 830" stroke-miterlimit="10" stroke-dasharray=""/></g><g><path fill="none" stroke="#000000" paint-order="fill stroke markers" d=" M 514 820 C 514 816.6862912 516.6862912 814 520 814 C 523.3137088 814 526 816.6862912 526 820 C 526 823.3137088 523.3137088 826 520 826 C 516.6862912 826 514 823.3137088 514 820 Z" stroke-miterlimit="10" stroke-dasharray=""/></g><g><path fill="none" stroke="#000000" paint-order="fill stroke markers" d=" M 498 820 C 498 816.6862912 500.6862912 814 504 814 C 507.3137088 814 510 816.6862912 510 820 C 510 823.3137088 507.3137088 826 504 826 C 500.6862912 826 498 823.3137088 498 820 Z" stroke-miterlimit="10" stroke-dasharray=""/></g><g><path fill="none" stroke="#000000" paint-order="fill stroke markers" d=" M 20 814 L 486 814 Q 492 814 492 820 L 492 820 Q 492 826 486 826 L 20 826 Q 14 826 14 820 L 14 820 Q 14 814 20 814 Z" stroke-miterlimit="10" stroke-dasharray=""/></g><g><path fill="#ffffff" stroke="none" paint-order="stroke fill markers" d=" M 594 810 L 1106 810 Q 1110 810 1110 814 L 1110 1546 Q 1110 1550 1106 1550 L 594 1550 Q 590 1550 590 1546 L 590 814 Q 590 810 594 810 Z"/></g><g><path fill="none" stroke="#000000" paint-order="fill stroke markers" d=" M 594 810 L 1106 810 Q 1110 810 1110 814 L 1110 1546 Q 1110 1550 1106 1550 L 594 1550 Q 590 1550 590 1546 L 590 814 Q 590 810 594 810 Z" stroke-miterlimit="10" stroke-dasharray=""/></g><g><path fill="none" stroke="#000000" paint-order="fill stroke markers" d=" M 590 830 L 1110 830" stroke-miterlimit="10" stroke-dasharray=""/></g><g><path fill="none" stroke="#000000" paint-order="fill stroke markers" d=" M 1094 820 C 1094 816.6862912 1096.6862912 814 1100 814 C 1103.3137088 814 1106 816.6862912 1106 820 C 1106 823.3137088 1103.3137088 826 1100 826 C 1096.6862912 826 1094 823.3137088 1094 820 Z" stroke-miterlimit="10" stroke-dasharray=""/></g><g><path fill="none" stroke="#000000" paint-order="fill stroke markers" d=" M 1078 820 C 1078 816.6862912 1080.6862912 814 1084 814 C 1087.3137088 814 1090 816.6862912 1090 820 C 1090 823.3137088 1087.3137088 826 1084 826 C 1080.6862912 826 1078 823.3137088 1078 820 Z" stroke-miterlimit="10" stroke-dasharray=""/></g><g><path fill="none" stroke="#000000" paint-order="fill stroke markers" d=" M 600 814 L 1066 814 Q 1072 814 1072 820 L 1072 820 Q 1072 826 1066 826 L 600 826 Q 594 826 594 820 L 594 820 Q 594 814 600 814 Z" stroke-miterlimit="10" stroke-dasharray=""/></g><g><g><path fill="none" stroke="none"/><text fill="#000000" stroke="none" font-family="Arial" font-size="13px" font-style="normal" font-weight="normal" text-decoration="undefined" x="72" y="88.5" text-anchor="start" dominant-baseline="central" transform="matrix(1 0 0 1 -30 -30)">Activate Samplero VST</text></g></g><g><rect fill="#ffffff" stroke="none" x="72" y="132" width="214" height="96" transform="matrix(1 0 0 1 -30 -30)"/></g><g><path fill="none" stroke="#000000" paint-order="fill stroke markers" d=" M 42 102 L 256 102 L 256 198 L 42 198 L 42 102 Z Z" stroke-miterlimit="10" stroke-dasharray=""/></g><g><rect fill="#ffffff" stroke="none" x="306" y="132" width="222" height="96" transform="matrix(1 0 0 1 -30 -30)"/></g><g><path fill="none" stroke="#000000" paint-order="fill stroke markers" d=" M 276 102 L 498 102 L 498 198 L 276 198 L 276 102 Z Z" stroke-miterlimit="10" stroke-dasharray=""/></g><g><path fill="#ffffff" stroke="none" paint-order="stroke fill markers" d=" M 46 236 L 494 236 Q 498 236 498 240 L 498 266 Q 498 270 494 270 L 46 270 Q 42 270 42 266 L 42 240 Q 42 236 46 236 Z"/></g><g><path fill="none" stroke="#000000" paint-order="fill stroke markers" d=" M 46 236 L 494 236 Q 498 236 498 240 L 498 266 Q 498 270 494 270 L 46 270 Q 42 270 42 266 L 42 240 Q 42 236 46 236 Z" stroke-miterlimit="10" stroke-dasharray=""/></g><g><g><path fill="none" stroke="none"/><text fill="#000000" stroke="none" font-family="Arial" font-size="13px" font-style="normal" font-weight="normal" text-decoration="undefined" x="80" y="278.5" text-anchor="start" dominant-baseline="central" transform="matrix(1 0 0 1 -30 -30)">Paste license key</text></g></g><g><path fill="none" stroke="#000000" paint-order="fill stroke markers" d=" M 45 295 L 53 295 Q 56 295 56 298 L 56 306 Q 56 309 53 309 L 45 309 Q 42 309 42 306 L 42 298 Q 42 295 45 295 Z" stroke-miterlimit="10" stroke-dasharray=""/></g><g><g><path fill="none" stroke="none"/><text fill="#000000" stroke="none" font-family="Arial" font-size="13px" font-style="normal" font-weight="normal" text-decoration="undefined" x="90" y="333.5" text-anchor="start" dominant-baseline="central" transform="matrix(1 0 0 1 -30 -30)">Remember this device</text></g></g><g><path fill="#ffffff" stroke="none" paint-order="stroke fill markers" d=" M 46 342 L 182 342 Q 186 342 186 346 L 186 374 Q 186 378 182 378 L 46 378 Q 42 378 42 374 L 42 346 Q 42 342 46 342 Z"/></g><g><path fill="none" stroke="#000000" paint-order="fill stroke markers" d=" M 46 342 L 182 342 Q 186 342 186 346 L 186 374 Q 186 378 182 378 L 46 378 Q 42 378 42 374 L 42 346 Q 42 342 46 342 Z" stroke-miterlimit="10" stroke-dasharray=""/></g><g><g><path fill="none" stroke="none"/><text fill="#000000" stroke="none" font-family="Arial" font-size="13px" font-style="normal" font-weight="normal" text-decoration="undefined" x="144" y="391.5" text-anchor="middle" dominant-baseline="central" transform="matrix(1 0 0 1 -30 -30)">Activate this device</text></g></g><g><rect fill="#ffffff" stroke="none" x="72" y="446" width="456" height="102" transform="matrix(1 0 0 1 -30 -30)"/></g><g><path fill="none" stroke="#000000" paint-order="fill stroke markers" d=" M 42 416 L 498 416 L 498 518 L 42 518 L 42 416 Z Z" stroke-miterlimit="10" stroke-dasharray=""/></g><g><rect fill="#ffffff" stroke="none" x="72" y="580" width="456" height="108" transform="matrix(1 0 0 1 -30 -30)"/></g><g><path fill="none" stroke="#000000" paint-order="fill stroke markers" d=" M 42 550 L 498 550 L 498 658 L 42 658 L 42 550 Z Z" stroke-miterlimit="10" stroke-dasharray=""/></g><g><g><path fill="none" stroke="none"/><text fill="#000000" stroke="none" font-family="Arial" font-size="13px" font-style="normal" font-weight="normal" text-decoration="undefined" x="646" y="88.5" text-anchor="start" dominant-baseline="central" transform="matrix(1 0 0 1 -30 -30)">Download Hub</text></g></g><g><g><path fill="none" stroke="none"/><text fill="#2b71ff" stroke="none" font-family="Arial" font-size="13px" font-style="normal" font-weight="normal" text-decoration="undefined" x="646" y="130.5" text-anchor="start" dominant-baseline="central" transform="matrix(1 0 0 1 -30 -30)">Plugins</text><path fill="none" stroke="#2b71ff" paint-order="fill stroke markers" d=" M 616 107 L 658.63720703125 107" stroke-miterlimit="10" stroke-dasharray=""/></g></g><g><g><path fill="none" stroke="none"/><text fill="#2b71ff" stroke="none" font-family="Arial" font-size="13px" font-style="normal" font-weight="normal" text-decoration="undefined" x="724" y="130.5" text-anchor="start" dominant-baseline="central" transform="matrix(1 0 0 1 -30 -30)">Sample Packs</text><path fill="none" stroke="#2b71ff" paint-order="fill stroke markers" d=" M 694 107 L 777.0908203125 107" stroke-miterlimit="10" stroke-dasharray=""/></g></g><g><g><path fill="none" stroke="none"/><text fill="#2b71ff" stroke="none" font-family="Arial" font-size="13px" font-style="normal" font-weight="normal" text-decoration="undefined" x="838" y="130.5" text-anchor="start" dominant-baseline="central" transform="matrix(1 0 0 1 -30 -30)">Updates</text><path fill="none" stroke="#2b71ff" paint-order="fill stroke markers" d=" M 808 107 L 856.419921875 107" stroke-miterlimit="10" stroke-dasharray=""/></g></g><g><path fill="#ffffff" stroke="none" paint-order="stroke fill markers" d=" M 620 140 L 1078 140 Q 1082 140 1082 144 L 1082 168 Q 1082 172 1078 172 L 620 172 Q 616 172 616 168 L 616 144 Q 616 140 620 140 Z"/></g><g><path fill="none" stroke="#000000" paint-order="fill stroke markers" d=" M 620 140 L 1078 140 Q 1082 140 1082 144 L 1082 168 Q 1082 172 1078 172 L 620 172 Q 616 172 616 168 L 616 144 Q 616 140 620 140 Z" stroke-miterlimit="10" stroke-dasharray=""/></g><g><g><path fill="none" stroke="none"/><text fill="#000000" stroke="none" font-family="Arial" font-size="13px" font-style="normal" font-weight="normal" text-decoration="undefined" x="654" y="182.5" text-anchor="start" dominant-baseline="central" transform="matrix(1 0 0 1 -30 -30)">Search by product or format</text></g></g><g><rect fill="#ffffff" stroke="none" x="646" y="236" width="226" height="284" transform="matrix(1 0 0 1 -30 -30)"/></g><g><path fill="none" stroke="#000000" paint-order="fill stroke markers" d=" M 616 206 L 842 206 L 842 490 L 616 490 L 616 206 Z Z" stroke-miterlimit="10" stroke-dasharray=""/></g><g><rect fill="#ffffff" stroke="none" x="888" y="236" width="224" height="284" transform="matrix(1 0 0 1 -30 -30)"/></g><g><path fill="none" stroke="#000000" paint-order="fill stroke markers" d=" M 858 206 L 1082 206 L 1082 490 L 858 490 L 858 206 Z Z" stroke-miterlimit="10" stroke-dasharray=""/></g><g><rect fill="#ffffff" stroke="none" x="646" y="556" width="466" height="132" transform="matrix(1 0 0 1 -30 -30)"/></g><g><path fill="none" stroke="#000000" paint-order="fill stroke markers" d=" M 616 526 L 1082 526 L 1082 658 L 616 658 L 616 526 Z Z" stroke-miterlimit="10" stroke-dasharray=""/></g><g><g><path fill="none" stroke="none"/><text fill="#000000" stroke="none" font-family="Arial" font-size="13px" font-style="normal" font-weight="normal" text-decoration="undefined" x="72" y="888.5" text-anchor="start" dominant-baseline="central" transform="matrix(1 0 0 1 -30 -30)">Error / Empty States</text></g></g><g><rect fill="#ffffff" stroke="none" x="72" y="936" width="214" height="152" transform="matrix(1 0 0 1 -30 -30)"/></g><g><path fill="none" stroke="#000000" paint-order="fill stroke markers" d=" M 42 906 L 256 906 L 256 1058 L 42 1058 L 42 906 Z Z" stroke-miterlimit="10" stroke-dasharray=""/></g><g><rect fill="#ffffff" stroke="none" x="310" y="936" width="218" height="152" transform="matrix(1 0 0 1 -30 -30)"/></g><g><path fill="none" stroke="#000000" paint-order="fill stroke markers" d=" M 280 906 L 498 906 L 498 1058 L 280 1058 L 280 906 Z Z" stroke-miterlimit="10" stroke-dasharray=""/></g><g><rect fill="#ffffff" stroke="none" x="72" y="1124" width="214" height="154" transform="matrix(1 0 0 1 -30 -30)"/></g><g><path fill="none" stroke="#000000" paint-order="fill stroke markers" d=" M 42 1094 L 256 1094 L 256 1248 L 42 1248 L 42 1094 Z Z" stroke-miterlimit="10" stroke-dasharray=""/></g><g><rect fill="#ffffff" stroke="none" x="310" y="1124" width="218" height="154" transform="matrix(1 0 0 1 -30 -30)"/></g><g><path fill="none" stroke="#000000" paint-order="fill stroke markers" d=" M 280 1094 L 498 1094 L 498 1248 L 280 1248 L 280 1094 Z Z" stroke-miterlimit="10" stroke-dasharray=""/></g><g><rect fill="#ffffff" stroke="none" x="72" y="1314" width="456" height="126" transform="matrix(1 0 0 1 -30 -30)"/></g><g><path fill="none" stroke="#000000" paint-order="fill stroke markers" d=" M 42 1284 L 498 1284 L 498 1410 L 42 1410 L 42 1284 Z Z" stroke-miterlimit="10" stroke-dasharray=""/></g><g><g><path fill="none" stroke="none"/><text fill="#000000" stroke="none" font-family="Arial" font-size="13px" font-style="normal" font-weight="normal" text-decoration="undefined" x="646" y="888.5" text-anchor="start" dominant-baseline="central" transform="matrix(1 0 0 1 -30 -30)">Refund / Billing Request</text></g></g><g><path fill="#ffffff" stroke="none" paint-order="stroke fill markers" d=" M 620 906 L 1078 906 Q 1082 906 1082 910 L 1082 934 Q 1082 938 1078 938 L 620 938 Q 616 938 616 934 L 616 910 Q 616 906 620 906 Z"/></g><g><path fill="none" stroke="#000000" paint-order="fill stroke markers" d=" M 620 906 L 1078 906 Q 1082 906 1082 910 L 1082 934 Q 1082 938 1078 938 L 620 938 Q 616 938 616 934 L 616 910 Q 616 906 620 906 Z" stroke-miterlimit="10" stroke-dasharray=""/></g><g><g><path fill="none" stroke="none"/><text fill="#000000" stroke="none" font-family="Arial" font-size="13px" font-style="normal" font-weight="normal" text-decoration="undefined" x="654" y="948.5" text-anchor="start" dominant-baseline="central" transform="matrix(1 0 0 1 -30 -30)">Order reference or email</text></g></g><g><path fill="#ffffff" stroke="none" paint-order="stroke fill markers" d=" M 620 956 L 894 956 Q 898 956 898 960 L 898 984 Q 898 988 894 988 L 620 988 Q 616 988 616 984 L 616 960 Q 616 956 620 956 Z"/></g><g><path fill="none" stroke="#000000" paint-order="fill stroke markers" d=" M 620 956 L 894 956 Q 898 956 898 960 L 898 984 Q 898 988 894 988 L 620 988 Q 616 988 616 984 L 616 960 Q 616 956 620 956 Z" stroke-miterlimit="10" stroke-dasharray=""/></g><g><path fill="none" stroke="#000000" paint-order="fill stroke markers" d=" M 890 970 L 887 974" stroke-miterlimit="10" stroke-dasharray=""/></g><g><path fill="none" stroke="#000000" paint-order="fill stroke markers" d=" M 887 974 L 884 970" stroke-miterlimit="10" stroke-dasharray=""/></g><g><g><path fill="none" stroke="none"/><text fill="#000000" stroke="none" font-family="Arial" font-size="13px" font-style="normal" font-weight="normal" text-decoration="undefined" x="654" y="998.5" text-anchor="start" dominant-baseline="central" transform="matrix(1 0 0 1 -30 -30)">Request type: refund / invoice / VAT</text></g></g><g><path fill="#ffffff" stroke="none" paint-order="stroke fill markers" d=" M 620 1006 L 948 1006 Q 952 1006 952 1010 L 952 1034 Q 952 1038 948 1038 L 620 1038 Q 616 1038 616 1034 L 616 1010 Q 616 1006 620 1006 Z"/></g><g><path fill="none" stroke="#000000" paint-order="fill stroke markers" d=" M 620 1006 L 948 1006 Q 952 1006 952 1010 L 952 1034 Q 952 1038 948 1038 L 620 1038 Q 616 1038 616 1034 L 616 1010 Q 616 1006 620 1006 Z" stroke-miterlimit="10" stroke-dasharray=""/></g><g><path fill="none" stroke="#000000" paint-order="fill stroke markers" d=" M 944 1020 L 941 1024" stroke-miterlimit="10" stroke-dasharray=""/></g><g><path fill="none" stroke="#000000" paint-order="fill stroke markers" d=" M 941 1024 L 938 1020" stroke-miterlimit="10" stroke-dasharray=""/></g><g><g><path fill="none" stroke="none"/><text fill="#000000" stroke="none" font-family="Arial" font-size="13px" font-style="normal" font-weight="normal" text-decoration="undefined" x="654" y="1048.5" text-anchor="start" dominant-baseline="central" transform="matrix(1 0 0 1 -30 -30)">Reason: wrong product / technical issue</text></g></g><g><rect fill="#ffffff" stroke="none" x="646" y="1098" width="336" height="188" transform="matrix(1 0 0 1 -30 -30)"/></g><g><path fill="none" stroke="#000000" paint-order="fill stroke markers" d=" M 616 1068 L 952 1068 L 952 1256 L 616 1256 L 616 1068 Z Z" stroke-miterlimit="10" stroke-dasharray=""/></g><g><path fill="#ffffff" stroke="none" paint-order="stroke fill markers" d=" M 620 1284 L 734 1284 Q 738 1284 738 1288 L 738 1314 Q 738 1318 734 1318 L 620 1318 Q 616 1318 616 1314 L 616 1288 Q 616 1284 620 1284 Z"/></g><g><path fill="none" stroke="#000000" paint-order="fill stroke markers" d=" M 620 1284 L 734 1284 Q 738 1284 738 1288 L 738 1314 Q 738 1318 734 1318 L 620 1318 Q 616 1318 616 1314 L 616 1288 Q 616 1284 620 1284 Z" stroke-miterlimit="10" stroke-dasharray=""/></g><g><g><path fill="none" stroke="none"/><text fill="#000000" stroke="none" font-family="Arial" font-size="13px" font-style="normal" font-weight="normal" text-decoration="undefined" x="707" y="1332.5" text-anchor="middle" dominant-baseline="central" transform="matrix(1 0 0 1 -30 -30)">Submit request</text></g></g><g><rect fill="#ffffff" stroke="none" x="1000" y="986" width="112" height="200" transform="matrix(1 0 0 1 -30 -30)"/></g><g><path fill="none" stroke="#000000" paint-order="fill stroke markers" d=" M 970 956 L 1082 956 L 1082 1156 L 970 1156 L 970 956 Z Z" stroke-miterlimit="10" stroke-dasharray=""/></g><g><rect fill="#ffffff" stroke="none" x="1000" y="1210" width="112" height="138" transform="matrix(1 0 0 1 -30 -30)"/></g><g><path fill="none" stroke="#000000" paint-order="fill stroke markers" d=" M 970 1180 L 1082 1180 L 1082 1318 L 970 1318 L 970 1180 Z Z" stroke-miterlimit="10" stroke-dasharray=""/></g></g></svg>